{
  "asset": {
    "generator": "Khronos glTF Blender I/O v4.4.56",
    "version": "2.0"
  },
  "scene": 0,
  "scenes": [
    {
      "name": "Scene",
      "nodes": [
        0
      ]
    }
  ],
  "nodes": [
    {
      "mesh": 0,
      "name": "mid_century_lounge_chair"
    }
  ],
  "materials": [
    {
      "doubleSided": true,
      "name": "mid_century_lounge_chair",
      "normalTexture": {
        "index": 0
      },
      "pbrMetallicRoughness": {
        "baseColorTexture": {
          "index": 1
        },
        "metallicRoughnessTexture": {
          "index": 2
        }
      }
    }
  ],
  "meshes": [
    {
      "name": "lounge_chair",
      "primitives": [
        {
          "attributes": {
            "POSITION": 0,
            "NORMAL": 1,
            "TEXCOORD_0": 2
          },
          "indices": 3,
          "material": 0
        }
      ]
    }
  ],
  "textures": [
    {
      "sampler": 0,
      "source": 0
    },
    {
      "sampler": 0,
      "source": 1
    },
    {
      "sampler": 0,
      "source": 2
    }
  ],
  "images": [
    {
      "mimeType": "image/jpeg",
      "name": "mid_century_lounge_chair_nor_gl",
      "uri": "textures/mid_century_lounge_chair_nor_gl_4k.jpg"
    },
    {
      "mimeType": "image/jpeg",
      "name": "mid_century_lounge_chair_diff",
      "uri": "textures/mid_century_lounge_chair_diff_4k.jpg"
    },
    {
      "mimeType": "image/jpeg",
      "name": "mid_century_lounge_chair_metal-mid_century_lounge_chair_rough",
      "uri": "textures/mid_century_lounge_chair_arm_4k.jpg"
    }
  ],
  "accessors": [
    {
      "bufferView": 0,
      "componentType": 5126,
      "count": 4203,
      "max": [
        0.504307210445404,
        1.1690846681594849,
        0.5289482474327087
      ],
      "min": [
        -0.5043071508407593,
        -5.651812884366336e-8,
        -0.6613625288009644
      ],
      "type": "VEC3"
    },
    {
      "bufferView": 1,
      "componentType": 5126,
      "count": 4203,
      "type": "VEC3"
    },
    {
      "bufferView": 2,
      "componentType": 5126,
      "count": 4203,
      "type": "VEC2"
    },
    {
      "bufferView": 3,
      "componentType": 5123,
      "count": 18444,
      "type": "SCALAR"
    }
  ],
  "bufferViews": [
    {
      "buffer": 0,
      "byteLength": 50436,
      "byteOffset": 0,
      "target": 34962
    },
    {
      "buffer": 0,
      "byteLength": 50436,
      "byteOffset": 50436,
      "target": 34962
    },
    {
      "buffer": 0,
      "byteLength": 33624,
      "byteOffset": 100872,
      "target": 34962
    },
    {
      "buffer": 0,
      "byteLength": 36888,
      "byteOffset": 134496,
      "target": 34963
    }
  ],
  "samplers": [
    {
      "magFilter": 9729,
      "minFilter": 9987
    }
  ],
  "buffers": [
    {
      "byteLength": 171384,
      "uri": "mid_century_lounge_chair.bin"
    }
  ]
}