{
  "accessors": [
    {
      "bufferView": 0,
      "componentType": 5125,
      "count": 9468,
      "type": "SCALAR"
    },
    {
      "bufferView": 1,
      "componentType": 5126,
      "count": 2326,
      "max": [
        0.344741016626358,
        2.07898998260498,
        43.3319702148438
      ],
      "min": [
        -0.344740003347397,
        0.0,
        42.652961730957
      ],
      "type": "VEC3"
    },
    {
      "bufferView": 2,
      "componentType": 5126,
      "count": 2326,
      "type": "VEC3"
    },
    {
      "bufferView": 3,
      "componentType": 5126,
      "count": 2326,
      "type": "VEC4"
    },
    {
      "bufferView": 4,
      "componentType": 5126,
      "count": 2326,
      "type": "VEC2"
    },
    {
      "bufferView": 5,
      "componentType": 5125,
      "count": 4320,
      "type": "SCALAR"
    },
    {
      "bufferView": 6,
      "componentType": 5126,
      "count": 1143,
      "max": [
        0.208120003342628,
        1.29664373397827,
        56.3869743347168
      ],
      "min": [
        -0.208120003342628,
        0.0,
        55.9707374572754
      ],
      "type": "VEC3"
    },
    {
      "bufferView": 7,
      "componentType": 5126,
      "count": 1143,
      "type": "VEC3"
    },
    {
      "bufferView": 8,
      "componentType": 5126,
      "count": 1143,
      "type": "VEC4"
    },
    {
      "bufferView": 9,
      "componentType": 5126,
      "count": 1143,
      "type": "VEC2"
    },
    {
      "bufferView": 10,
      "componentType": 5125,
      "count": 9468,
      "type": "SCALAR"
    },
    {
      "bufferView": 11,
      "componentType": 5126,
      "count": 2239,
      "max": [
        0.407973974943161,
        2.68755292892456,
        41.9034271240234
      ],
      "min": [
        -0.407974004745483,
        0.0,
        41.0998764038086
      ],
      "type": "VEC3"
    },
    {
      "bufferView": 12,
      "componentType": 5126,
      "count": 2239,
      "type": "VEC3"
    },
    {
      "bufferView": 13,
      "componentType": 5126,
      "count": 2239,
      "type": "VEC4"
    },
    {
      "bufferView": 14,
      "componentType": 5126,
      "count": 2239,
      "type": "VEC2"
    },
    {
      "bufferView": 15,
      "componentType": 5125,
      "count": 3936,
      "type": "SCALAR"
    },
    {
      "bufferView": 16,
      "componentType": 5126,
      "count": 1057,
      "max": [
        0.203317001461983,
        1.21461200714111,
        48.9223556518555
      ],
      "min": [
        -0.203316986560822,
        0.0,
        48.5157241821289
      ],
      "type": "VEC3"
    },
    {
      "bufferView": 17,
      "componentType": 5126,
      "count": 1057,
      "type": "VEC3"
    },
    {
      "bufferView": 18,
      "componentType": 5126,
      "count": 1057,
      "type": "VEC4"
    },
    {
      "bufferView": 19,
      "componentType": 5126,
      "count": 1057,
      "type": "VEC2"
    },
    {
      "bufferView": 20,
      "componentType": 5125,
      "count": 4704,
      "type": "SCALAR"
    },
    {
      "bufferView": 21,
      "componentType": 5126,
      "count": 1362,
      "max": [
        0.221697002649307,
        2.2136242389679,
        44.8144645690918
      ],
      "min": [
        -0.221697002649307,
        0.0,
        44.3710670471191
      ],
      "type": "VEC3"
    },
    {
      "bufferView": 22,
      "componentType": 5126,
      "count": 1362,
      "type": "VEC3"
    },
    {
      "bufferView": 23,
      "componentType": 5126,
      "count": 1362,
      "type": "VEC4"
    },
    {
      "bufferView": 24,
      "componentType": 5126,
      "count": 1362,
      "type": "VEC2"
    },
    {
      "bufferView": 25,
      "componentType": 5125,
      "count": 4608,
      "type": "SCALAR"
    },
    {
      "bufferView": 26,
      "componentType": 5126,
      "count": 1358,
      "max": [
        0.221697002649307,
        2.20896172523499,
        44.8144645690918
      ],
      "min": [
        -0.221697002649307,
        0.0,
        44.3710670471191
      ],
      "type": "VEC3"
    },
    {
      "bufferView": 27,
      "componentType": 5126,
      "count": 1358,
      "type": "VEC3"
    },
    {
      "bufferView": 28,
      "componentType": 5126,
      "count": 1358,
      "type": "VEC4"
    },
    {
      "bufferView": 29,
      "componentType": 5126,
      "count": 1358,
      "type": "VEC2"
    },
    {
      "bufferView": 30,
      "componentType": 5125,
      "count": 6144,
      "type": "SCALAR"
    },
    {
      "bufferView": 31,
      "componentType": 5126,
      "count": 1874,
      "max": [
        0.285604000091553,
        3.07823801040649,
        38.4824409484863
      ],
      "min": [
        -0.285602986812592,
        0.0,
        37.9112396240234
      ],
      "type": "VEC3"
    },
    {
      "bufferView": 32,
      "componentType": 5126,
      "count": 1874,
      "type": "VEC3"
    },
    {
      "bufferView": 33,
      "componentType": 5126,
      "count": 1874,
      "type": "VEC4"
    },
    {
      "bufferView": 34,
      "componentType": 5126,
      "count": 1874,
      "type": "VEC2"
    },
    {
      "bufferView": 35,
      "componentType": 5125,
      "count": 5520,
      "type": "SCALAR"
    },
    {
      "bufferView": 36,
      "componentType": 5126,
      "count": 1704,
      "max": [
        0.285604000091553,
        3.07920002937317,
        39.885929107666
      ],
      "min": [
        -0.285602986812592,
        0.0,
        39.3147277832031
      ],
      "type": "VEC3"
    },
    {
      "bufferView": 37,
      "componentType": 5126,
      "count": 1704,
      "type": "VEC3"
    },
    {
      "bufferView": 38,
      "componentType": 5126,
      "count": 1704,
      "type": "VEC4"
    },
    {
      "bufferView": 39,
      "componentType": 5126,
      "count": 1704,
      "type": "VEC2"
    },
    {
      "bufferView": 40,
      "componentType": 5125,
      "count": 6144,
      "type": "SCALAR"
    },
    {
      "bufferView": 41,
      "componentType": 5126,
      "count": 1798,
      "max": [
        0.395263016223907,
        5.49895477294922,
        15.6962938308716
      ],
      "min": [
        -0.395262002944946,
        0.0,
        14.9057703018188
      ],
      "type": "VEC3"
    },
    {
      "bufferView": 42,
      "componentType": 5126,
      "count": 1798,
      "type": "VEC3"
    },
    {
      "bufferView": 43,
      "componentType": 5126,
      "count": 1798,
      "type": "VEC4"
    },
    {
      "bufferView": 44,
      "componentType": 5126,
      "count": 1798,
      "type": "VEC2"
    },
    {
      "bufferView": 45,
      "componentType": 5125,
      "count": 6912,
      "type": "SCALAR"
    },
    {
      "bufferView": 46,
      "componentType": 5126,
      "count": 2147,
      "max": [
        0.395263016223907,
        5.49462985992432,
        15.6962938308716
      ],
      "min": [
        -0.395262002944946,
        0.0,
        14.9057703018188
      ],
      "type": "VEC3"
    },
    {
      "bufferView": 47,
      "componentType": 5126,
      "count": 2147,
      "type": "VEC3"
    },
    {
      "bufferView": 48,
      "componentType": 5126,
      "count": 2147,
      "type": "VEC4"
    },
    {
      "bufferView": 49,
      "componentType": 5126,
      "count": 2147,
      "type": "VEC2"
    },
    {
      "bufferView": 50,
      "componentType": 5125,
      "count": 5184,
      "type": "SCALAR"
    },
    {
      "bufferView": 51,
      "componentType": 5126,
      "count": 1463,
      "max": [
        0.395263016223907,
        5.49462985992432,
        15.6962938308716
      ],
      "min": [
        -0.395262002944946,
        0.0,
        14.9057703018188
      ],
      "type": "VEC3"
    },
    {
      "bufferView": 52,
      "componentType": 5126,
      "count": 1463,
      "type": "VEC3"
    },
    {
      "bufferView": 53,
      "componentType": 5126,
      "count": 1463,
      "type": "VEC4"
    },
    {
      "bufferView": 54,
      "componentType": 5126,
      "count": 1463,
      "type": "VEC2"
    },
    {
      "bufferView": 55,
      "componentType": 5125,
      "count": 9324,
      "type": "SCALAR"
    },
    {
      "bufferView": 56,
      "componentType": 5126,
      "count": 2140,
      "max": [
        0.236066997051239,
        1.97506380081177,
        46.2659072875977
      ],
      "min": [
        -0.2360670119524,
        0.0,
        45.8009490966797
      ],
      "type": "VEC3"
    },
    {
      "bufferView": 57,
      "componentType": 5126,
      "count": 2140,
      "type": "VEC3"
    },
    {
      "bufferView": 58,
      "componentType": 5126,
      "count": 2140,
      "type": "VEC4"
    },
    {
      "bufferView": 59,
      "componentType": 5126,
      "count": 2140,
      "type": "VEC2"
    },
    {
      "bufferView": 60,
      "componentType": 5125,
      "count": 8352,
      "type": "SCALAR"
    },
    {
      "bufferView": 61,
      "componentType": 5126,
      "count": 2443,
      "max": [
        0.740149021148682,
        8.72742652893066,
        -6.51887893676758
      ],
      "min": [
        -0.740146994590759,
        0.0,
        -7.99917411804199
      ],
      "type": "VEC3"
    },
    {
      "bufferView": 62,
      "componentType": 5126,
      "count": 2443,
      "type": "VEC3"
    },
    {
      "bufferView": 63,
      "componentType": 5126,
      "count": 2443,
      "type": "VEC4"
    },
    {
      "bufferView": 64,
      "componentType": 5126,
      "count": 2443,
      "type": "VEC2"
    },
    {
      "bufferView": 65,
      "componentType": 5125,
      "count": 8640,
      "type": "SCALAR"
    },
    {
      "bufferView": 66,
      "componentType": 5126,
      "count": 2524,
      "max": [
        0.740149021148682,
        8.71437835693359,
        -0.419227600097656
      ],
      "min": [
        -0.740146994590759,
        0.0,
        -1.89952373504639
      ],
      "type": "VEC3"
    },
    {
      "bufferView": 67,
      "componentType": 5126,
      "count": 2524,
      "type": "VEC3"
    },
    {
      "bufferView": 68,
      "componentType": 5126,
      "count": 2524,
      "type": "VEC4"
    },
    {
      "bufferView": 69,
      "componentType": 5126,
      "count": 2524,
      "type": "VEC2"
    },
    {
      "bufferView": 70,
      "componentType": 5125,
      "count": 8544,
      "type": "SCALAR"
    },
    {
      "bufferView": 71,
      "componentType": 5126,
      "count": 2491,
      "max": [
        0.740149021148682,
        8.77788829803467,
        -9.1689510345459
      ],
      "min": [
        -0.740146994590759,
        0.0,
        -10.6492481231689
      ],
      "type": "VEC3"
    },
    {
      "bufferView": 72,
      "componentType": 5126,
      "count": 2491,
      "type": "VEC3"
    },
    {
      "bufferView": 73,
      "componentType": 5126,
      "count": 2491,
      "type": "VEC4"
    },
    {
      "bufferView": 74,
      "componentType": 5126,
      "count": 2491,
      "type": "VEC2"
    },
    {
      "bufferView": 75,
      "componentType": 5125,
      "count": 7008,
      "type": "SCALAR"
    },
    {
      "bufferView": 76,
      "componentType": 5126,
      "count": 2135,
      "max": [
        0.427756994962692,
        5.29282999038696,
        15.7287893295288
      ],
      "min": [
        -0.427756011486053,
        0.0,
        14.8732748031616
      ],
      "type": "VEC3"
    },
    {
      "bufferView": 77,
      "componentType": 5126,
      "count": 2135,
      "type": "VEC3"
    },
    {
      "bufferView": 78,
      "componentType": 5126,
      "count": 2135,
      "type": "VEC4"
    },
    {
      "bufferView": 79,
      "componentType": 5126,
      "count": 2135,
      "type": "VEC2"
    },
    {
      "bufferView": 80,
      "componentType": 5125,
      "count": 6624,
      "type": "SCALAR"
    },
    {
      "bufferView": 81,
      "componentType": 5126,
      "count": 1753,
      "max": [
        0.585720002651215,
        6.6327428817749,
        26.8579025268555
      ],
      "min": [
        -0.585717976093292,
        0.0,
        25.686466217041
      ],
      "type": "VEC3"
    },
    {
      "bufferView": 82,
      "componentType": 5126,
      "count": 1753,
      "type": "VEC3"
    },
    {
      "bufferView": 83,
      "componentType": 5126,
      "count": 1753,
      "type": "VEC4"
    },
    {
      "bufferView": 84,
      "componentType": 5126,
      "count": 1753,
      "type": "VEC2"
    },
    {
      "bufferView": 85,
      "componentType": 5125,
      "count": 7008,
      "type": "SCALAR"
    },
    {
      "bufferView": 86,
      "componentType": 5126,
      "count": 2092,
      "max": [
        0.506980001926422,
        7.14933109283447,
        24.7838363647461
      ],
      "min": [
        -0.506978988647461,
        0.0,
        23.7698745727539
      ],
      "type": "VEC3"
    },
    {
      "bufferView": 87,
      "componentType": 5126,
      "count": 2092,
      "type": "VEC3"
    },
    {
      "bufferView": 88,
      "componentType": 5126,
      "count": 2092,
      "type": "VEC4"
    },
    {
      "bufferView": 89,
      "componentType": 5126,
      "count": 2092,
      "type": "VEC2"
    },
    {
      "bufferView": 90,
      "componentType": 5125,
      "count": 6624,
      "type": "SCALAR"
    },
    {
      "bufferView": 91,
      "componentType": 5126,
      "count": 1903,
      "max": [
        0.506980001926422,
        7.14411592483521,
        7.31136751174927
      ],
      "min": [
        -0.506978988647461,
        0.0,
        6.29740810394287
      ],
      "type": "VEC3"
    },
    {
      "bufferView": 92,
      "componentType": 5126,
      "count": 1903,
      "type": "VEC3"
    },
    {
      "bufferView": 93,
      "componentType": 5126,
      "count": 1903,
      "type": "VEC4"
    },
    {
      "bufferView": 94,
      "componentType": 5126,
      "count": 1903,
      "type": "VEC2"
    },
    {
      "bufferView": 95,
      "componentType": 5125,
      "count": 7200,
      "type": "SCALAR"
    },
    {
      "bufferView": 96,
      "componentType": 5126,
      "count": 2126,
      "max": [
        0.506980001926422,
        7.14933109283447,
        11.9579162597656
      ],
      "min": [
        -0.506978988647461,
        0.0,
        10.9439563751221
      ],
      "type": "VEC3"
    },
    {
      "bufferView": 97,
      "componentType": 5126,
      "count": 2126,
      "type": "VEC3"
    },
    {
      "bufferView": 98,
      "componentType": 5126,
      "count": 2126,
      "type": "VEC4"
    },
    {
      "bufferView": 99,
      "componentType": 5126,
      "count": 2126,
      "type": "VEC2"
    },
    {
      "bufferView": 100,
      "componentType": 5125,
      "count": 7296,
      "type": "SCALAR"
    },
    {
      "bufferView": 101,
      "componentType": 5126,
      "count": 2141,
      "max": [
        0.506980001926422,
        7.14628505706787,
        9.56016635894775
      ],
      "min": [
        -0.506978988647461,
        0.0,
        8.54620552062988
      ],
      "type": "VEC3"
    },
    {
      "bufferView": 102,
      "componentType": 5126,
      "count": 2141,
      "type": "VEC3"
    },
    {
      "bufferView": 103,
      "componentType": 5126,
      "count": 2141,
      "type": "VEC4"
    },
    {
      "bufferView": 104,
      "componentType": 5126,
      "count": 2141,
      "type": "VEC2"
    },
    {
      "bufferView": 105,
      "componentType": 5125,
      "count": 10560,
      "type": "SCALAR"
    },
    {
      "bufferView": 106,
      "componentType": 5126,
      "count": 3081,
      "max": [
        0.585720002651215,
        6.56293678283691,
        20.2672100067139
      ],
      "min": [
        -0.585717976093292,
        0.0,
        19.0957736968994
      ],
      "type": "VEC3"
    },
    {
      "bufferView": 107,
      "componentType": 5126,
      "count": 3081,
      "type": "VEC3"
    },
    {
      "bufferView": 108,
      "componentType": 5126,
      "count": 3081,
      "type": "VEC4"
    },
    {
      "bufferView": 109,
      "componentType": 5126,
      "count": 3081,
      "type": "VEC2"
    },
    {
      "bufferView": 110,
      "componentType": 5125,
      "count": 6768,
      "type": "SCALAR"
    },
    {
      "bufferView": 111,
      "componentType": 5126,
      "count": 2117,
      "max": [
        0.427756994962692,
        5.55650615692139,
        14.009105682373
      ],
      "min": [
        -0.427756011486053,
        0.0,
        13.1535911560059
      ],
      "type": "VEC3"
    },
    {
      "bufferView": 112,
      "componentType": 5126,
      "count": 2117,
      "type": "VEC3"
    },
    {
      "bufferView": 113,
      "componentType": 5126,
      "count": 2117,
      "type": "VEC4"
    },
    {
      "bufferView": 114,
      "componentType": 5126,
      "count": 2117,
      "type": "VEC2"
    },
    {
      "bufferView": 115,
      "componentType": 5125,
      "count": 8064,
      "type": "SCALAR"
    },
    {
      "bufferView": 116,
      "componentType": 5126,
      "count": 2390,
      "max": [
        0.585720002651215,
        6.6126537322998,
        22.5441913604736
      ],
      "min": [
        -0.585717976093292,
        0.0,
        21.3727550506592
      ],
      "type": "VEC3"
    },
    {
      "bufferView": 117,
      "componentType": 5126,
      "count": 2390,
      "type": "VEC3"
    },
    {
      "bufferView": 118,
      "componentType": 5126,
      "count": 2390,
      "type": "VEC4"
    },
    {
      "bufferView": 119,
      "componentType": 5126,
      "count": 2390,
      "type": "VEC2"
    },
    {
      "bufferView": 120,
      "componentType": 5125,
      "count": 6336,
      "type": "SCALAR"
    },
    {
      "bufferView": 121,
      "componentType": 5126,
      "count": 1986,
      "max": [
        0.427756994962692,
        5.61198997497559,
        17.746561050415
      ],
      "min": [
        -0.427756011486053,
        0.0,
        16.8910465240479
      ],
      "type": "VEC3"
    },
    {
      "bufferView": 122,
      "componentType": 5126,
      "count": 1986,
      "type": "VEC3"
    },
    {
      "bufferView": 123,
      "componentType": 5126,
      "count": 1986,
      "type": "VEC4"
    },
    {
      "bufferView": 124,
      "componentType": 5126,
      "count": 1986,
      "type": "VEC2"
    },
    {
      "bufferView": 125,
      "componentType": 5125,
      "count": 3936,
      "type": "SCALAR"
    },
    {
      "bufferView": 126,
      "componentType": 5126,
      "count": 994,
      "max": [
        0.18553601205349,
        1.01124906539917,
        50.5450210571289
      ],
      "min": [
        -0.185546979308128,
        0.0,
        50.173942565918
      ],
      "type": "VEC3"
    },
    {
      "bufferView": 127,
      "componentType": 5126,
      "count": 994,
      "type": "VEC3"
    },
    {
      "bufferView": 128,
      "componentType": 5126,
      "count": 994,
      "type": "VEC4"
    },
    {
      "bufferView": 129,
      "componentType": 5126,
      "count": 994,
      "type": "VEC2"
    },
    {
      "bufferView": 130,
      "componentType": 5125,
      "count": 6480,
      "type": "SCALAR"
    },
    {
      "bufferView": 131,
      "componentType": 5126,
      "count": 1537,
      "max": [
        0.219943001866341,
        1.65086889266968,
        47.536994934082
      ],
      "min": [
        -0.219943001866341,
        0.0,
        47.1037902832031
      ],
      "type": "VEC3"
    },
    {
      "bufferView": 132,
      "componentType": 5126,
      "count": 1537,
      "type": "VEC3"
    },
    {
      "bufferView": 133,
      "componentType": 5126,
      "count": 1537,
      "type": "VEC4"
    },
    {
      "bufferView": 134,
      "componentType": 5126,
      "count": 1537,
      "type": "VEC2"
    },
    {
      "bufferView": 135,
      "componentType": 5125,
      "count": 4320,
      "type": "SCALAR"
    },
    {
      "bufferView": 136,
      "componentType": 5126,
      "count": 1123,
      "max": [
        0.245933994650841,
        1.29998922348022,
        54.189022064209
      ],
      "min": [
        -0.245932996273041,
        0.0,
        53.7046318054199
      ],
      "type": "VEC3"
    },
    {
      "bufferView": 137,
      "componentType": 5126,
      "count": 1123,
      "type": "VEC3"
    },
    {
      "bufferView": 138,
      "componentType": 5126,
      "count": 1123,
      "type": "VEC4"
    },
    {
      "bufferView": 139,
      "componentType": 5126,
      "count": 1123,
      "type": "VEC2"
    },
    {
      "bufferView": 140,
      "componentType": 5125,
      "count": 9648,
      "type": "SCALAR"
    },
    {
      "bufferView": 141,
      "componentType": 5126,
      "count": 3240,
      "max": [
        0.215316012501717,
        1.16803026199341,
        55.3485527038574
      ],
      "min": [
        -0.215315997600555,
        0.0,
        54.9112739562988
      ],
      "type": "VEC3"
    },
    {
      "bufferView": 142,
      "componentType": 5126,
      "count": 3240,
      "type": "VEC3"
    },
    {
      "bufferView": 143,
      "componentType": 5126,
      "count": 3240,
      "type": "VEC4"
    },
    {
      "bufferView": 144,
      "componentType": 5126,
      "count": 3240,
      "type": "VEC2"
    },
    {
      "bufferView": 145,
      "componentType": 5125,
      "count": 4320,
      "type": "SCALAR"
    },
    {
      "bufferView": 146,
      "componentType": 5126,
      "count": 1137,
      "max": [
        0.213057994842529,
        1.48380327224731,
        57.4665565490723
      ],
      "min": [
        -0.213056996464729,
        0.0,
        57.0404396057129
      ],
      "type": "VEC3"
    },
    {
      "bufferView": 147,
      "componentType": 5126,
      "count": 1137,
      "type": "VEC3"
    },
    {
      "bufferView": 148,
      "componentType": 5126,
      "count": 1137,
      "type": "VEC4"
    },
    {
      "bufferView": 149,
      "componentType": 5126,
      "count": 1137,
      "type": "VEC2"
    },
    {
      "bufferView": 150,
      "componentType": 5125,
      "count": 4032,
      "type": "SCALAR"
    },
    {
      "bufferView": 151,
      "componentType": 5126,
      "count": 1177,
      "max": [
        0.162890002131462,
        1.00006294250488,
        51.6353378295898
      ],
      "min": [
        -0.162890002131462,
        0.0,
        51.3095550537109
      ],
      "type": "VEC3"
    },
    {
      "bufferView": 152,
      "componentType": 5126,
      "count": 1177,
      "type": "VEC3"
    },
    {
      "bufferView": 153,
      "componentType": 5126,
      "count": 1177,
      "type": "VEC4"
    },
    {
      "bufferView": 154,
      "componentType": 5126,
      "count": 1177,
      "type": "VEC2"
    },
    {
      "bufferView": 155,
      "componentType": 5125,
      "count": 5328,
      "type": "SCALAR"
    },
    {
      "bufferView": 156,
      "componentType": 5126,
      "count": 1399,
      "max": [
        0.145298004150391,
        1.02011823654175,
        52.8976516723633
      ],
      "min": [
        -0.145296007394791,
        0.0,
        52.6070556640625
      ],
      "type": "VEC3"
    },
    {
      "bufferView": 157,
      "componentType": 5126,
      "count": 1399,
      "type": "VEC3"
    },
    {
      "bufferView": 158,
      "componentType": 5126,
      "count": 1399,
      "type": "VEC4"
    },
    {
      "bufferView": 159,
      "componentType": 5126,
      "count": 1399,
      "type": "VEC2"
    },
    {
      "bufferView": 160,
      "componentType": 5125,
      "count": 14112,
      "type": "SCALAR"
    },
    {
      "bufferView": 161,
      "componentType": 5126,
      "count": 6295,
      "max": [
        0.82013601064682,
        4.85760498046875,
        29.4958610534668
      ],
      "min": [
        -0.820135951042175,
        0.0,
        27.8555908203125
      ],
      "type": "VEC3"
    },
    {
      "bufferView": 162,
      "componentType": 5126,
      "count": 6295,
      "type": "VEC3"
    },
    {
      "bufferView": 163,
      "componentType": 5126,
      "count": 6295,
      "type": "VEC4"
    },
    {
      "bufferView": 164,
      "componentType": 5126,
      "count": 6295,
      "type": "VEC2"
    },
    {
      "bufferView": 165,
      "componentType": 5125,
      "count": 10848,
      "type": "SCALAR"
    },
    {
      "bufferView": 166,
      "componentType": 5126,
      "count": 3253,
      "max": [
        0.765177965164185,
        3.88435888290405,
        31.9682273864746
      ],
      "min": [
        -0.765177011489868,
        0.0,
        30.437873840332
      ],
      "type": "VEC3"
    },
    {
      "bufferView": 167,
      "componentType": 5126,
      "count": 3253,
      "type": "VEC3"
    },
    {
      "bufferView": 168,
      "componentType": 5126,
      "count": 3253,
      "type": "VEC4"
    },
    {
      "bufferView": 169,
      "componentType": 5126,
      "count": 3253,
      "type": "VEC2"
    },
    {
      "bufferView": 170,
      "componentType": 5125,
      "count": 9792,
      "type": "SCALAR"
    },
    {
      "bufferView": 171,
      "componentType": 5126,
      "count": 3168,
      "max": [
        0.793415009975433,
        3.80454397201538,
        34.080436706543
      ],
      "min": [
        -0.793413996696472,
        0.0,
        32.4936065673828
      ],
      "type": "VEC3"
    },
    {
      "bufferView": 172,
      "componentType": 5126,
      "count": 3168,
      "type": "VEC3"
    },
    {
      "bufferView": 173,
      "componentType": 5126,
      "count": 3168,
      "type": "VEC4"
    },
    {
      "bufferView": 174,
      "componentType": 5126,
      "count": 3168,
      "type": "VEC2"
    },
    {
      "bufferView": 175,
      "componentType": 5125,
      "count": 9216,
      "type": "SCALAR"
    },
    {
      "bufferView": 176,
      "componentType": 5126,
      "count": 2885,
      "max": [
        0.831687927246094,
        3.80133581161499,
        36.9682235717773
      ],
      "min": [
        -0.831688046455383,
        0.0,
        35.3048477172852
      ],
      "type": "VEC3"
    },
    {
      "bufferView": 177,
      "componentType": 5126,
      "count": 2885,
      "type": "VEC3"
    },
    {
      "bufferView": 178,
      "componentType": 5126,
      "count": 2885,
      "type": "VEC4"
    },
    {
      "bufferView": 179,
      "componentType": 5126,
      "count": 2885,
      "type": "VEC2"
    },
    {
      "bufferView": 180,
      "componentType": 5125,
      "count": 9984,
      "type": "SCALAR"
    },
    {
      "bufferView": 181,
      "componentType": 5126,
      "count": 3323,
      "max": [
        0.802654981613159,
        10.6571884155273,
        -25.0169830322266
      ],
      "min": [
        -0.802653014659882,
        0.0,
        -26.6222915649414
      ],
      "type": "VEC3"
    },
    {
      "bufferView": 182,
      "componentType": 5126,
      "count": 3323,
      "type": "VEC3"
    },
    {
      "bufferView": 183,
      "componentType": 5126,
      "count": 3323,
      "type": "VEC4"
    },
    {
      "bufferView": 184,
      "componentType": 5126,
      "count": 3323,
      "type": "VEC2"
    },
    {
      "bufferView": 185,
      "componentType": 5125,
      "count": 8736,
      "type": "SCALAR"
    },
    {
      "bufferView": 186,
      "componentType": 5126,
      "count": 2391,
      "max": [
        0.664178013801575,
        7.94579219818115,
        1.72107601165771
      ],
      "min": [
        -0.664177000522614,
        0.0,
        0.392720222473145
      ],
      "type": "VEC3"
    },
    {
      "bufferView": 187,
      "componentType": 5126,
      "count": 2391,
      "type": "VEC3"
    },
    {
      "bufferView": 188,
      "componentType": 5126,
      "count": 2391,
      "type": "VEC4"
    },
    {
      "bufferView": 189,
      "componentType": 5126,
      "count": 2391,
      "type": "VEC2"
    },
    {
      "bufferView": 190,
      "componentType": 5125,
      "count": 9984,
      "type": "SCALAR"
    },
    {
      "bufferView": 191,
      "componentType": 5126,
      "count": 2774,
      "max": [
        0.672744989395142,
        7.94084215164185,
        5.01906204223633
      ],
      "min": [
        -0.67274397611618,
        0.0,
        3.67357444763184
      ],
      "type": "VEC3"
    },
    {
      "bufferView": 192,
      "componentType": 5126,
      "count": 2774,
      "type": "VEC3"
    },
    {
      "bufferView": 193,
      "componentType": 5126,
      "count": 2774,
      "type": "VEC4"
    },
    {
      "bufferView": 194,
      "componentType": 5126,
      "count": 2774,
      "type": "VEC2"
    },
    {
      "bufferView": 195,
      "componentType": 5125,
      "count": 7104,
      "type": "SCALAR"
    },
    {
      "bufferView": 196,
      "componentType": 5126,
      "count": 2909,
      "max": [
        0.876551985740662,
        11.4271583557129,
        -28.3674926757812
      ],
      "min": [
        -0.876551032066345,
        0.0,
        -30.1205940246582
      ],
      "type": "VEC3"
    },
    {
      "bufferView": 197,
      "componentType": 5126,
      "count": 2909,
      "type": "VEC3"
    },
    {
      "bufferView": 198,
      "componentType": 5126,
      "count": 2909,
      "type": "VEC4"
    },
    {
      "bufferView": 199,
      "componentType": 5126,
      "count": 2909,
      "type": "VEC2"
    },
    {
      "bufferView": 200,
      "componentType": 5125,
      "count": 4992,
      "type": "SCALAR"
    },
    {
      "bufferView": 201,
      "componentType": 5126,
      "count": 2047,
      "max": [
        0.876551985740662,
        11.4385004043579,
        -14.5158004760742
      ],
      "min": [
        -0.876551032066345,
        0.0,
        -16.2689018249512
      ],
      "type": "VEC3"
    },
    {
      "bufferView": 202,
      "componentType": 5126,
      "count": 2047,
      "type": "VEC3"
    },
    {
      "bufferView": 203,
      "componentType": 5126,
      "count": 2047,
      "type": "VEC4"
    },
    {
      "bufferView": 204,
      "componentType": 5126,
      "count": 2047,
      "type": "VEC2"
    },
    {
      "bufferView": 205,
      "componentType": 5125,
      "count": 9120,
      "type": "SCALAR"
    },
    {
      "bufferView": 206,
      "componentType": 5126,
      "count": 3101,
      "max": [
        0.752969026565552,
        11.0489912033081,
        -25.0666656494141
      ],
      "min": [
        -0.752969026565552,
        0.0,
        -26.5726089477539
      ],
      "type": "VEC3"
    },
    {
      "bufferView": 207,
      "componentType": 5126,
      "count": 3101,
      "type": "VEC3"
    },
    {
      "bufferView": 208,
      "componentType": 5126,
      "count": 3101,
      "type": "VEC4"
    },
    {
      "bufferView": 209,
      "componentType": 5126,
      "count": 3101,
      "type": "VEC2"
    },
    {
      "bufferView": 210,
      "componentType": 5125,
      "count": 6240,
      "type": "SCALAR"
    },
    {
      "bufferView": 211,
      "componentType": 5126,
      "count": 2563,
      "max": [
        0.734872996807098,
        11.3709049224854,
        -25.0847625732422
      ],
      "min": [
        -0.734873056411743,
        0.0,
        -26.5545120239258
      ],
      "type": "VEC3"
    },
    {
      "bufferView": 212,
      "componentType": 5126,
      "count": 2563,
      "type": "VEC3"
    },
    {
      "bufferView": 213,
      "componentType": 5126,
      "count": 2563,
      "type": "VEC4"
    },
    {
      "bufferView": 214,
      "componentType": 5126,
      "count": 2563,
      "type": "VEC2"
    },
    {
      "bufferView": 215,
      "componentType": 5125,
      "count": 8736,
      "type": "SCALAR"
    },
    {
      "bufferView": 216,
      "componentType": 5126,
      "count": 2830,
      "max": [
        0.796833038330078,
        10.5927658081055,
        -25.0228042602539
      ],
      "min": [
        -0.796832978725433,
        0.0,
        -26.6164703369141
      ],
      "type": "VEC3"
    },
    {
      "bufferView": 217,
      "componentType": 5126,
      "count": 2830,
      "type": "VEC3"
    },
    {
      "bufferView": 218,
      "componentType": 5126,
      "count": 2830,
      "type": "VEC4"
    },
    {
      "bufferView": 219,
      "componentType": 5126,
      "count": 2830,
      "type": "VEC2"
    },
    {
      "bufferView": 220,
      "componentType": 5125,
      "count": 8928,
      "type": "SCALAR"
    },
    {
      "bufferView": 221,
      "componentType": 5126,
      "count": 3081,
      "max": [
        0.752969026565552,
        11.0489912033081,
        -25.0666656494141
      ],
      "min": [
        -0.752969026565552,
        0.0,
        -26.5726089477539
      ],
      "type": "VEC3"
    },
    {
      "bufferView": 222,
      "componentType": 5126,
      "count": 3081,
      "type": "VEC3"
    },
    {
      "bufferView": 223,
      "componentType": 5126,
      "count": 3081,
      "type": "VEC4"
    },
    {
      "bufferView": 224,
      "componentType": 5126,
      "count": 3081,
      "type": "VEC2"
    },
    {
      "bufferView": 225,
      "componentType": 5125,
      "count": 11952,
      "type": "SCALAR"
    },
    {
      "bufferView": 226,
      "componentType": 5126,
      "count": 3392,
      "max": [
        0.802661955356598,
        10.7144603729248,
        -11.9930801391602
      ],
      "min": [
        -0.80265998840332,
        0.0,
        -13.5984001159668
      ],
      "type": "VEC3"
    },
    {
      "bufferView": 227,
      "componentType": 5126,
      "count": 3392,
      "type": "VEC3"
    },
    {
      "bufferView": 228,
      "componentType": 5126,
      "count": 3392,
      "type": "VEC4"
    },
    {
      "bufferView": 229,
      "componentType": 5126,
      "count": 3392,
      "type": "VEC2"
    },
    {
      "bufferView": 230,
      "componentType": 5125,
      "count": 14520,
      "type": "SCALAR"
    },
    {
      "bufferView": 231,
      "componentType": 5126,
      "count": 6042,
      "max": [
        0.876551985740662,
        11.4269418716431,
        -17.8573627471924
      ],
      "min": [
        -0.876551032066345,
        0.0,
        -19.610466003418
      ],
      "type": "VEC3"
    },
    {
      "bufferView": 232,
      "componentType": 5126,
      "count": 6042,
      "type": "VEC3"
    },
    {
      "bufferView": 233,
      "componentType": 5126,
      "count": 6042,
      "type": "VEC4"
    },
    {
      "bufferView": 234,
      "componentType": 5126,
      "count": 6042,
      "type": "VEC2"
    },
    {
      "bufferView": 235,
      "componentType": 5125,
      "count": 13008,
      "type": "SCALAR"
    },
    {
      "bufferView": 236,
      "componentType": 5126,
      "count": 3797,
      "max": [
        0.802661001682281,
        10.5882320404053,
        -25.016975402832
      ],
      "min": [
        -0.80265998840332,
        0.0,
        -26.6222991943359
      ],
      "type": "VEC3"
    },
    {
      "bufferView": 237,
      "componentType": 5126,
      "count": 3797,
      "type": "VEC3"
    },
    {
      "bufferView": 238,
      "componentType": 5126,
      "count": 3797,
      "type": "VEC4"
    },
    {
      "bufferView": 239,
      "componentType": 5126,
      "count": 3797,
      "type": "VEC2"
    },
    {
      "bufferView": 240,
      "componentType": 5125,
      "count": 7488,
      "type": "SCALAR"
    },
    {
      "bufferView": 241,
      "componentType": 5126,
      "count": 3183,
      "max": [
        0.876551985740662,
        11.4385004043579,
        -21.6051864624023
      ],
      "min": [
        -0.876551032066345,
        0.0,
        -23.358283996582
      ],
      "type": "VEC3"
    },
    {
      "bufferView": 242,
      "componentType": 5126,
      "count": 3183,
      "type": "VEC3"
    },
    {
      "bufferView": 243,
      "componentType": 5126,
      "count": 3183,
      "type": "VEC4"
    },
    {
      "bufferView": 244,
      "componentType": 5126,
      "count": 3183,
      "type": "VEC2"
    },
    {
      "bufferView": 245,
      "componentType": 5125,
      "count": 8832,
      "type": "SCALAR"
    },
    {
      "bufferView": 246,
      "componentType": 5126,
      "count": 2811,
      "max": [
        0.740149021148682,
        8.7215633392334,
        -3.54900169372559
      ],
      "min": [
        -0.740146994590759,
        0.0,
        -5.029296875
      ],
      "type": "VEC3"
    },
    {
      "bufferView": 247,
      "componentType": 5126,
      "count": 2811,
      "type": "VEC3"
    },
    {
      "bufferView": 248,
      "componentType": 5126,
      "count": 2811,
      "type": "VEC4"
    },
    {
      "bufferView": 249,
      "componentType": 5126,
      "count": 2811,
      "type": "VEC2"
    }
  ],
  "asset": {
    "generator": "Adobe Substance 3D Painter 9.1.2",
    "version": "2.0"
  },
  "bufferViews": [
    {
      "buffer": 0,
      "byteLength": 37872,
      "target": 34963
    },
    {
      "buffer": 0,
      "byteLength": 27912,
      "byteOffset": 37872,
      "target": 34962
    },
    {
      "buffer": 0,
      "byteLength": 27912,
      "byteOffset": 65784,
      "target": 34962
    },
    {
      "buffer": 0,
      "byteLength": 37216,
      "byteOffset": 93696,
      "target": 34962
    },
    {
      "buffer": 0,
      "byteLength": 18608,
      "byteOffset": 130912,
      "target": 34962
    },
    {
      "buffer": 0,
      "byteLength": 17280,
      "byteOffset": 149520,
      "target": 34963
    },
    {
      "buffer": 0,
      "byteLength": 13716,
      "byteOffset": 166800,
      "target": 34962
    },
    {
      "buffer": 0,
      "byteLength": 13716,
      "byteOffset": 180516,
      "target": 34962
    },
    {
      "buffer": 0,
      "byteLength": 18288,
      "byteOffset": 194232,
      "target": 34962
    },
    {
      "buffer": 0,
      "byteLength": 9144,
      "byteOffset": 212520,
      "target": 34962
    },
    {
      "buffer": 0,
      "byteLength": 37872,
      "byteOffset": 221664,
      "target": 34963
    },
    {
      "buffer": 0,
      "byteLength": 26868,
      "byteOffset": 259536,
      "target": 34962
    },
    {
      "buffer": 0,
      "byteLength": 26868,
      "byteOffset": 286404,
      "target": 34962
    },
    {
      "buffer": 0,
      "byteLength": 35824,
      "byteOffset": 313272,
      "target": 34962
    },
    {
      "buffer": 0,
      "byteLength": 17912,
      "byteOffset": 349096,
      "target": 34962
    },
    {
      "buffer": 0,
      "byteLength": 15744,
      "byteOffset": 367008,
      "target": 34963
    },
    {
      "buffer": 0,
      "byteLength": 12684,
      "byteOffset": 382752,
      "target": 34962
    },
    {
      "buffer": 0,
      "byteLength": 12684,
      "byteOffset": 395436,
      "target": 34962
    },
    {
      "buffer": 0,
      "byteLength": 16912,
      "byteOffset": 408120,
      "target": 34962
    },
    {
      "buffer": 0,
      "byteLength": 8456,
      "byteOffset": 425032,
      "target": 34962
    },
    {
      "buffer": 0,
      "byteLength": 18816,
      "byteOffset": 433488,
      "target": 34963
    },
    {
      "buffer": 0,
      "byteLength": 16344,
      "byteOffset": 452304,
      "target": 34962
    },
    {
      "buffer": 0,
      "byteLength": 16344,
      "byteOffset": 468648,
      "target": 34962
    },
    {
      "buffer": 0,
      "byteLength": 21792,
      "byteOffset": 484992,
      "target": 34962
    },
    {
      "buffer": 0,
      "byteLength": 10896,
      "byteOffset": 506784,
      "target": 34962
    },
    {
      "buffer": 0,
      "byteLength": 18432,
      "byteOffset": 517680,
      "target": 34963
    },
    {
      "buffer": 0,
      "byteLength": 16296,
      "byteOffset": 536112,
      "target": 34962
    },
    {
      "buffer": 0,
      "byteLength": 16296,
      "byteOffset": 552408,
      "target": 34962
    },
    {
      "buffer": 0,
      "byteLength": 21728,
      "byteOffset": 568704,
      "target": 34962
    },
    {
      "buffer": 0,
      "byteLength": 10864,
      "byteOffset": 590432,
      "target": 34962
    },
    {
      "buffer": 0,
      "byteLength": 24576,
      "byteOffset": 601296,
      "target": 34963
    },
    {
      "buffer": 0,
      "byteLength": 22488,
      "byteOffset": 625872,
      "target": 34962
    },
    {
      "buffer": 0,
      "byteLength": 22488,
      "byteOffset": 648360,
      "target": 34962
    },
    {
      "buffer": 0,
      "byteLength": 29984,
      "byteOffset": 670848,
      "target": 34962
    },
    {
      "buffer": 0,
      "byteLength": 14992,
      "byteOffset": 700832,
      "target": 34962
    },
    {
      "buffer": 0,
      "byteLength": 22080,
      "byteOffset": 715824,
      "target": 34963
    },
    {
      "buffer": 0,
      "byteLength": 20448,
      "byteOffset": 737904,
      "target": 34962
    },
    {
      "buffer": 0,
      "byteLength": 20448,
      "byteOffset": 758352,
      "target": 34962
    },
    {
      "buffer": 0,
      "byteLength": 27264,
      "byteOffset": 778800,
      "target": 34962
    },
    {
      "buffer": 0,
      "byteLength": 13632,
      "byteOffset": 806064,
      "target": 34962
    },
    {
      "buffer": 0,
      "byteLength": 24576,
      "byteOffset": 819696,
      "target": 34963
    },
    {
      "buffer": 0,
      "byteLength": 21576,
      "byteOffset": 844272,
      "target": 34962
    },
    {
      "buffer": 0,
      "byteLength": 21576,
      "byteOffset": 865848,
      "target": 34962
    },
    {
      "buffer": 0,
      "byteLength": 28768,
      "byteOffset": 887424,
      "target": 34962
    },
    {
      "buffer": 0,
      "byteLength": 14384,
      "byteOffset": 916192,
      "target": 34962
    },
    {
      "buffer": 0,
      "byteLength": 27648,
      "byteOffset": 930576,
      "target": 34963
    },
    {
      "buffer": 0,
      "byteLength": 25764,
      "byteOffset": 958224,
      "target": 34962
    },
    {
      "buffer": 0,
      "byteLength": 25764,
      "byteOffset": 983988,
      "target": 34962
    },
    {
      "buffer": 0,
      "byteLength": 34352,
      "byteOffset": 1009752,
      "target": 34962
    },
    {
      "buffer": 0,
      "byteLength": 17176,
      "byteOffset": 1044104,
      "target": 34962
    },
    {
      "buffer": 0,
      "byteLength": 20736,
      "byteOffset": 1061280,
      "target": 34963
    },
    {
      "buffer": 0,
      "byteLength": 17556,
      "byteOffset": 1082016,
      "target": 34962
    },
    {
      "buffer": 0,
      "byteLength": 17556,
      "byteOffset": 1099572,
      "target": 34962
    },
    {
      "buffer": 0,
      "byteLength": 23408,
      "byteOffset": 1117128,
      "target": 34962
    },
    {
      "buffer": 0,
      "byteLength": 11704,
      "byteOffset": 1140536,
      "target": 34962
    },
    {
      "buffer": 0,
      "byteLength": 37296,
      "byteOffset": 1152240,
      "target": 34963
    },
    {
      "buffer": 0,
      "byteLength": 25680,
      "byteOffset": 1189536,
      "target": 34962
    },
    {
      "buffer": 0,
      "byteLength": 25680,
      "byteOffset": 1215216,
      "target": 34962
    },
    {
      "buffer": 0,
      "byteLength": 34240,
      "byteOffset": 1240896,
      "target": 34962
    },
    {
      "buffer": 0,
      "byteLength": 17120,
      "byteOffset": 1275136,
      "target": 34962
    },
    {
      "buffer": 0,
      "byteLength": 33408,
      "byteOffset": 1292256,
      "target": 34963
    },
    {
      "buffer": 0,
      "byteLength": 29316,
      "byteOffset": 1325664,
      "target": 34962
    },
    {
      "buffer": 0,
      "byteLength": 29316,
      "byteOffset": 1354980,
      "target": 34962
    },
    {
      "buffer": 0,
      "byteLength": 39088,
      "byteOffset": 1384296,
      "target": 34962
    },
    {
      "buffer": 0,
      "byteLength": 19544,
      "byteOffset": 1423384,
      "target": 34962
    },
    {
      "buffer": 0,
      "byteLength": 34560,
      "byteOffset": 1442928,
      "target": 34963
    },
    {
      "buffer": 0,
      "byteLength": 30288,
      "byteOffset": 1477488,
      "target": 34962
    },
    {
      "buffer": 0,
      "byteLength": 30288,
      "byteOffset": 1507776,
      "target": 34962
    },
    {
      "buffer": 0,
      "byteLength": 40384,
      "byteOffset": 1538064,
      "target": 34962
    },
    {
      "buffer": 0,
      "byteLength": 20192,
      "byteOffset": 1578448,
      "target": 34962
    },
    {
      "buffer": 0,
      "byteLength": 34176,
      "byteOffset": 1598640,
      "target": 34963
    },
    {
      "buffer": 0,
      "byteLength": 29892,
      "byteOffset": 1632816,
      "target": 34962
    },
    {
      "buffer": 0,
      "byteLength": 29892,
      "byteOffset": 1662708,
      "target": 34962
    },
    {
      "buffer": 0,
      "byteLength": 39856,
      "byteOffset": 1692600,
      "target": 34962
    },
    {
      "buffer": 0,
      "byteLength": 19928,
      "byteOffset": 1732456,
      "target": 34962
    },
    {
      "buffer": 0,
      "byteLength": 28032,
      "byteOffset": 1752384,
      "target": 34963
    },
    {
      "buffer": 0,
      "byteLength": 25620,
      "byteOffset": 1780416,
      "target": 34962
    },
    {
      "buffer": 0,
      "byteLength": 25620,
      "byteOffset": 1806036,
      "target": 34962
    },
    {
      "buffer": 0,
      "byteLength": 34160,
      "byteOffset": 1831656,
      "target": 34962
    },
    {
      "buffer": 0,
      "byteLength": 17080,
      "byteOffset": 1865816,
      "target": 34962
    },
    {
      "buffer": 0,
      "byteLength": 26496,
      "byteOffset": 1882896,
      "target": 34963
    },
    {
      "buffer": 0,
      "byteLength": 21036,
      "byteOffset": 1909392,
      "target": 34962
    },
    {
      "buffer": 0,
      "byteLength": 21036,
      "byteOffset": 1930428,
      "target": 34962
    },
    {
      "buffer": 0,
      "byteLength": 28048,
      "byteOffset": 1951464,
      "target": 34962
    },
    {
      "buffer": 0,
      "byteLength": 14024,
      "byteOffset": 1979512,
      "target": 34962
    },
    {
      "buffer": 0,
      "byteLength": 28032,
      "byteOffset": 1993536,
      "target": 34963
    },
    {
      "buffer": 0,
      "byteLength": 25104,
      "byteOffset": 2021568,
      "target": 34962
    },
    {
      "buffer": 0,
      "byteLength": 25104,
      "byteOffset": 2046672,
      "target": 34962
    },
    {
      "buffer": 0,
      "byteLength": 33472,
      "byteOffset": 2071776,
      "target": 34962
    },
    {
      "buffer": 0,
      "byteLength": 16736,
      "byteOffset": 2105248,
      "target": 34962
    },
    {
      "buffer": 0,
      "byteLength": 26496,
      "byteOffset": 2121984,
      "target": 34963
    },
    {
      "buffer": 0,
      "byteLength": 22836,
      "byteOffset": 2148480,
      "target": 34962
    },
    {
      "buffer": 0,
      "byteLength": 22836,
      "byteOffset": 2171316,
      "target": 34962
    },
    {
      "buffer": 0,
      "byteLength": 30448,
      "byteOffset": 2194152,
      "target": 34962
    },
    {
      "buffer": 0,
      "byteLength": 15224,
      "byteOffset": 2224600,
      "target": 34962
    },
    {
      "buffer": 0,
      "byteLength": 28800,
      "byteOffset": 2239824,
      "target": 34963
    },
    {
      "buffer": 0,
      "byteLength": 25512,
      "byteOffset": 2268624,
      "target": 34962
    },
    {
      "buffer": 0,
      "byteLength": 25512,
      "byteOffset": 2294136,
      "target": 34962
    },
    {
      "buffer": 0,
      "byteLength": 34016,
      "byteOffset": 2319648,
      "target": 34962
    },
    {
      "buffer": 0,
      "byteLength": 17008,
      "byteOffset": 2353664,
      "target": 34962
    },
    {
      "buffer": 0,
      "byteLength": 29184,
      "byteOffset": 2370672,
      "target": 34963
    },
    {
      "buffer": 0,
      "byteLength": 25692,
      "byteOffset": 2399856,
      "target": 34962
    },
    {
      "buffer": 0,
      "byteLength": 25692,
      "byteOffset": 2425548,
      "target": 34962
    },
    {
      "buffer": 0,
      "byteLength": 34256,
      "byteOffset": 2451240,
      "target": 34962
    },
    {
      "buffer": 0,
      "byteLength": 17128,
      "byteOffset": 2485496,
      "target": 34962
    },
    {
      "buffer": 0,
      "byteLength": 42240,
      "byteOffset": 2502624,
      "target": 34963
    },
    {
      "buffer": 0,
      "byteLength": 36972,
      "byteOffset": 2544864,
      "target": 34962
    },
    {
      "buffer": 0,
      "byteLength": 36972,
      "byteOffset": 2581836,
      "target": 34962
    },
    {
      "buffer": 0,
      "byteLength": 49296,
      "byteOffset": 2618808,
      "target": 34962
    },
    {
      "buffer": 0,
      "byteLength": 24648,
      "byteOffset": 2668104,
      "target": 34962
    },
    {
      "buffer": 0,
      "byteLength": 27072,
      "byteOffset": 2692752,
      "target": 34963
    },
    {
      "buffer": 0,
      "byteLength": 25404,
      "byteOffset": 2719824,
      "target": 34962
    },
    {
      "buffer": 0,
      "byteLength": 25404,
      "byteOffset": 2745228,
      "target": 34962
    },
    {
      "buffer": 0,
      "byteLength": 33872,
      "byteOffset": 2770632,
      "target": 34962
    },
    {
      "buffer": 0,
      "byteLength": 16936,
      "byteOffset": 2804504,
      "target": 34962
    },
    {
      "buffer": 0,
      "byteLength": 32256,
      "byteOffset": 2821440,
      "target": 34963
    },
    {
      "buffer": 0,
      "byteLength": 28680,
      "byteOffset": 2853696,
      "target": 34962
    },
    {
      "buffer": 0,
      "byteLength": 28680,
      "byteOffset": 2882376,
      "target": 34962
    },
    {
      "buffer": 0,
      "byteLength": 38240,
      "byteOffset": 2911056,
      "target": 34962
    },
    {
      "buffer": 0,
      "byteLength": 19120,
      "byteOffset": 2949296,
      "target": 34962
    },
    {
      "buffer": 0,
      "byteLength": 25344,
      "byteOffset": 2968416,
      "target": 34963
    },
    {
      "buffer": 0,
      "byteLength": 23832,
      "byteOffset": 2993760,
      "target": 34962
    },
    {
      "buffer": 0,
      "byteLength": 23832,
      "byteOffset": 3017592,
      "target": 34962
    },
    {
      "buffer": 0,
      "byteLength": 31776,
      "byteOffset": 3041424,
      "target": 34962
    },
    {
      "buffer": 0,
      "byteLength": 15888,
      "byteOffset": 3073200,
      "target": 34962
    },
    {
      "buffer": 0,
      "byteLength": 15744,
      "byteOffset": 3089088,
      "target": 34963
    },
    {
      "buffer": 0,
      "byteLength": 11928,
      "byteOffset": 3104832,
      "target": 34962
    },
    {
      "buffer": 0,
      "byteLength": 11928,
      "byteOffset": 3116760,
      "target": 34962
    },
    {
      "buffer": 0,
      "byteLength": 15904,
      "byteOffset": 3128688,
      "target": 34962
    },
    {
      "buffer": 0,
      "byteLength": 7952,
      "byteOffset": 3144592,
      "target": 34962
    },
    {
      "buffer": 0,
      "byteLength": 25920,
      "byteOffset": 3152544,
      "target": 34963
    },
    {
      "buffer": 0,
      "byteLength": 18444,
      "byteOffset": 3178464,
      "target": 34962
    },
    {
      "buffer": 0,
      "byteLength": 18444,
      "byteOffset": 3196908,
      "target": 34962
    },
    {
      "buffer": 0,
      "byteLength": 24592,
      "byteOffset": 3215352,
      "target": 34962
    },
    {
      "buffer": 0,
      "byteLength": 12296,
      "byteOffset": 3239944,
      "target": 34962
    },
    {
      "buffer": 0,
      "byteLength": 17280,
      "byteOffset": 3252240,
      "target": 34963
    },
    {
      "buffer": 0,
      "byteLength": 13476,
      "byteOffset": 3269520,
      "target": 34962
    },
    {
      "buffer": 0,
      "byteLength": 13476,
      "byteOffset": 3282996,
      "target": 34962
    },
    {
      "buffer": 0,
      "byteLength": 17968,
      "byteOffset": 3296472,
      "target": 34962
    },
    {
      "buffer": 0,
      "byteLength": 8984,
      "byteOffset": 3314440,
      "target": 34962
    },
    {
      "buffer": 0,
      "byteLength": 38592,
      "byteOffset": 3323424,
      "target": 34963
    },
    {
      "buffer": 0,
      "byteLength": 38880,
      "byteOffset": 3362016,
      "target": 34962
    },
    {
      "buffer": 0,
      "byteLength": 38880,
      "byteOffset": 3400896,
      "target": 34962
    },
    {
      "buffer": 0,
      "byteLength": 51840,
      "byteOffset": 3439776,
      "target": 34962
    },
    {
      "buffer": 0,
      "byteLength": 25920,
      "byteOffset": 3491616,
      "target": 34962
    },
    {
      "buffer": 0,
      "byteLength": 17280,
      "byteOffset": 3517536,
      "target": 34963
    },
    {
      "buffer": 0,
      "byteLength": 13644,
      "byteOffset": 3534816,
      "target": 34962
    },
    {
      "buffer": 0,
      "byteLength": 13644,
      "byteOffset": 3548460,
      "target": 34962
    },
    {
      "buffer": 0,
      "byteLength": 18192,
      "byteOffset": 3562104,
      "target": 34962
    },
    {
      "buffer": 0,
      "byteLength": 9096,
      "byteOffset": 3580296,
      "target": 34962
    },
    {
      "buffer": 0,
      "byteLength": 16128,
      "byteOffset": 3589392,
      "target": 34963
    },
    {
      "buffer": 0,
      "byteLength": 14124,
      "byteOffset": 3605520,
      "target": 34962
    },
    {
      "buffer": 0,
      "byteLength": 14124,
      "byteOffset": 3619644,
      "target": 34962
    },
    {
      "buffer": 0,
      "byteLength": 18832,
      "byteOffset": 3633768,
      "target": 34962
    },
    {
      "buffer": 0,
      "byteLength": 9416,
      "byteOffset": 3652600,
      "target": 34962
    },
    {
      "buffer": 0,
      "byteLength": 21312,
      "byteOffset": 3662016,
      "target": 34963
    },
    {
      "buffer": 0,
      "byteLength": 16788,
      "byteOffset": 3683328,
      "target": 34962
    },
    {
      "buffer": 0,
      "byteLength": 16788,
      "byteOffset": 3700116,
      "target": 34962
    },
    {
      "buffer": 0,
      "byteLength": 22384,
      "byteOffset": 3716904,
      "target": 34962
    },
    {
      "buffer": 0,
      "byteLength": 11192,
      "byteOffset": 3739288,
      "target": 34962
    },
    {
      "buffer": 0,
      "byteLength": 56448,
      "byteOffset": 3750480,
      "target": 34963
    },
    {
      "buffer": 0,
      "byteLength": 75540,
      "byteOffset": 3806928,
      "target": 34962
    },
    {
      "buffer": 0,
      "byteLength": 75540,
      "byteOffset": 3882468,
      "target": 34962
    },
    {
      "buffer": 0,
      "byteLength": 100720,
      "byteOffset": 3958008,
      "target": 34962
    },
    {
      "buffer": 0,
      "byteLength": 50360,
      "byteOffset": 4058728,
      "target": 34962
    },
    {
      "buffer": 0,
      "byteLength": 43392,
      "byteOffset": 4109088,
      "target": 34963
    },
    {
      "buffer": 0,
      "byteLength": 39036,
      "byteOffset": 4152480,
      "target": 34962
    },
    {
      "buffer": 0,
      "byteLength": 39036,
      "byteOffset": 4191516,
      "target": 34962
    },
    {
      "buffer": 0,
      "byteLength": 52048,
      "byteOffset": 4230552,
      "target": 34962
    },
    {
      "buffer": 0,
      "byteLength": 26024,
      "byteOffset": 4282600,
      "target": 34962
    },
    {
      "buffer": 0,
      "byteLength": 39168,
      "byteOffset": 4308624,
      "target": 34963
    },
    {
      "buffer": 0,
      "byteLength": 38016,
      "byteOffset": 4347792,
      "target": 34962
    },
    {
      "buffer": 0,
      "byteLength": 38016,
      "byteOffset": 4385808,
      "target": 34962
    },
    {
      "buffer": 0,
      "byteLength": 50688,
      "byteOffset": 4423824,
      "target": 34962
    },
    {
      "buffer": 0,
      "byteLength": 25344,
      "byteOffset": 4474512,
      "target": 34962
    },
    {
      "buffer": 0,
      "byteLength": 36864,
      "byteOffset": 4499856,
      "target": 34963
    },
    {
      "buffer": 0,
      "byteLength": 34620,
      "byteOffset": 4536720,
      "target": 34962
    },
    {
      "buffer": 0,
      "byteLength": 34620,
      "byteOffset": 4571340,
      "target": 34962
    },
    {
      "buffer": 0,
      "byteLength": 46160,
      "byteOffset": 4605960,
      "target": 34962
    },
    {
      "buffer": 0,
      "byteLength": 23080,
      "byteOffset": 4652120,
      "target": 34962
    },
    {
      "buffer": 0,
      "byteLength": 39936,
      "byteOffset": 4675200,
      "target": 34963
    },
    {
      "buffer": 0,
      "byteLength": 39876,
      "byteOffset": 4715136,
      "target": 34962
    },
    {
      "buffer": 0,
      "byteLength": 39876,
      "byteOffset": 4755012,
      "target": 34962
    },
    {
      "buffer": 0,
      "byteLength": 53168,
      "byteOffset": 4794888,
      "target": 34962
    },
    {
      "buffer": 0,
      "byteLength": 26584,
      "byteOffset": 4848056,
      "target": 34962
    },
    {
      "buffer": 0,
      "byteLength": 34944,
      "byteOffset": 4874640,
      "target": 34963
    },
    {
      "buffer": 0,
      "byteLength": 28692,
      "byteOffset": 4909584,
      "target": 34962
    },
    {
      "buffer": 0,
      "byteLength": 28692,
      "byteOffset": 4938276,
      "target": 34962
    },
    {
      "buffer": 0,
      "byteLength": 38256,
      "byteOffset": 4966968,
      "target": 34962
    },
    {
      "buffer": 0,
      "byteLength": 19128,
      "byteOffset": 5005224,
      "target": 34962
    },
    {
      "buffer": 0,
      "byteLength": 39936,
      "byteOffset": 5024352,
      "target": 34963
    },
    {
      "buffer": 0,
      "byteLength": 33288,
      "byteOffset": 5064288,
      "target": 34962
    },
    {
      "buffer": 0,
      "byteLength": 33288,
      "byteOffset": 5097576,
      "target": 34962
    },
    {
      "buffer": 0,
      "byteLength": 44384,
      "byteOffset": 5130864,
      "target": 34962
    },
    {
      "buffer": 0,
      "byteLength": 22192,
      "byteOffset": 5175248,
      "target": 34962
    },
    {
      "buffer": 0,
      "byteLength": 28416,
      "byteOffset": 5197440,
      "target": 34963
    },
    {
      "buffer": 0,
      "byteLength": 34908,
      "byteOffset": 5225856,
      "target": 34962
    },
    {
      "buffer": 0,
      "byteLength": 34908,
      "byteOffset": 5260764,
      "target": 34962
    },
    {
      "buffer": 0,
      "byteLength": 46544,
      "byteOffset": 5295672,
      "target": 34962
    },
    {
      "buffer": 0,
      "byteLength": 23272,
      "byteOffset": 5342216,
      "target": 34962
    },
    {
      "buffer": 0,
      "byteLength": 19968,
      "byteOffset": 5365488,
      "target": 34963
    },
    {
      "buffer": 0,
      "byteLength": 24564,
      "byteOffset": 5385456,
      "target": 34962
    },
    {
      "buffer": 0,
      "byteLength": 24564,
      "byteOffset": 5410020,
      "target": 34962
    },
    {
      "buffer": 0,
      "byteLength": 32752,
      "byteOffset": 5434584,
      "target": 34962
    },
    {
      "buffer": 0,
      "byteLength": 16376,
      "byteOffset": 5467336,
      "target": 34962
    },
    {
      "buffer": 0,
      "byteLength": 36480,
      "byteOffset": 5483712,
      "target": 34963
    },
    {
      "buffer": 0,
      "byteLength": 37212,
      "byteOffset": 5520192,
      "target": 34962
    },
    {
      "buffer": 0,
      "byteLength": 37212,
      "byteOffset": 5557404,
      "target": 34962
    },
    {
      "buffer": 0,
      "byteLength": 49616,
      "byteOffset": 5594616,
      "target": 34962
    },
    {
      "buffer": 0,
      "byteLength": 24808,
      "byteOffset": 5644232,
      "target": 34962
    },
    {
      "buffer": 0,
      "byteLength": 24960,
      "byteOffset": 5669040,
      "target": 34963
    },
    {
      "buffer": 0,
      "byteLength": 30756,
      "byteOffset": 5694000,
      "target": 34962
    },
    {
      "buffer": 0,
      "byteLength": 30756,
      "byteOffset": 5724756,
      "target": 34962
    },
    {
      "buffer": 0,
      "byteLength": 41008,
      "byteOffset": 5755512,
      "target": 34962
    },
    {
      "buffer": 0,
      "byteLength": 20504,
      "byteOffset": 5796520,
      "target": 34962
    },
    {
      "buffer": 0,
      "byteLength": 34944,
      "byteOffset": 5817024,
      "target": 34963
    },
    {
      "buffer": 0,
      "byteLength": 33960,
      "byteOffset": 5851968,
      "target": 34962
    },
    {
      "buffer": 0,
      "byteLength": 33960,
      "byteOffset": 5885928,
      "target": 34962
    },
    {
      "buffer": 0,
      "byteLength": 45280,
      "byteOffset": 5919888,
      "target": 34962
    },
    {
      "buffer": 0,
      "byteLength": 22640,
      "byteOffset": 5965168,
      "target": 34962
    },
    {
      "buffer": 0,
      "byteLength": 35712,
      "byteOffset": 5987808,
      "target": 34963
    },
    {
      "buffer": 0,
      "byteLength": 36972,
      "byteOffset": 6023520,
      "target": 34962
    },
    {
      "buffer": 0,
      "byteLength": 36972,
      "byteOffset": 6060492,
      "target": 34962
    },
    {
      "buffer": 0,
      "byteLength": 49296,
      "byteOffset": 6097464,
      "target": 34962
    },
    {
      "buffer": 0,
      "byteLength": 24648,
      "byteOffset": 6146760,
      "target": 34962
    },
    {
      "buffer": 0,
      "byteLength": 47808,
      "byteOffset": 6171408,
      "target": 34963
    },
    {
      "buffer": 0,
      "byteLength": 40704,
      "byteOffset": 6219216,
      "target": 34962
    },
    {
      "buffer": 0,
      "byteLength": 40704,
      "byteOffset": 6259920,
      "target": 34962
    },
    {
      "buffer": 0,
      "byteLength": 54272,
      "byteOffset": 6300624,
      "target": 34962
    },
    {
      "buffer": 0,
      "byteLength": 27136,
      "byteOffset": 6354896,
      "target": 34962
    },
    {
      "buffer": 0,
      "byteLength": 58080,
      "byteOffset": 6382032,
      "target": 34963
    },
    {
      "buffer": 0,
      "byteLength": 72504,
      "byteOffset": 6440112,
      "target": 34962
    },
    {
      "buffer": 0,
      "byteLength": 72504,
      "byteOffset": 6512616,
      "target": 34962
    },
    {
      "buffer": 0,
      "byteLength": 96672,
      "byteOffset": 6585120,
      "target": 34962
    },
    {
      "buffer": 0,
      "byteLength": 48336,
      "byteOffset": 6681792,
      "target": 34962
    },
    {
      "buffer": 0,
      "byteLength": 52032,
      "byteOffset": 6730128,
      "target": 34963
    },
    {
      "buffer": 0,
      "byteLength": 45564,
      "byteOffset": 6782160,
      "target": 34962
    },
    {
      "buffer": 0,
      "byteLength": 45564,
      "byteOffset": 6827724,
      "target": 34962
    },
    {
      "buffer": 0,
      "byteLength": 60752,
      "byteOffset": 6873288,
      "target": 34962
    },
    {
      "buffer": 0,
      "byteLength": 30376,
      "byteOffset": 6934040,
      "target": 34962
    },
    {
      "buffer": 0,
      "byteLength": 29952,
      "byteOffset": 6964416,
      "target": 34963
    },
    {
      "buffer": 0,
      "byteLength": 38196,
      "byteOffset": 6994368,
      "target": 34962
    },
    {
      "buffer": 0,
      "byteLength": 38196,
      "byteOffset": 7032564,
      "target": 34962
    },
    {
      "buffer": 0,
      "byteLength": 50928,
      "byteOffset": 7070760,
      "target": 34962
    },
    {
      "buffer": 0,
      "byteLength": 25464,
      "byteOffset": 7121688,
      "target": 34962
    },
    {
      "buffer": 0,
      "byteLength": 35328,
      "byteOffset": 7147152,
      "target": 34963
    },
    {
      "buffer": 0,
      "byteLength": 33732,
      "byteOffset": 7182480,
      "target": 34962
    },
    {
      "buffer": 0,
      "byteLength": 33732,
      "byteOffset": 7216212,
      "target": 34962
    },
    {
      "buffer": 0,
      "byteLength": 44976,
      "byteOffset": 7249944,
      "target": 34962
    },
    {
      "buffer": 0,
      "byteLength": 22488,
      "byteOffset": 7294920,
      "target": 34962
    }
  ],
  "buffers": [
    {
      "byteLength": 7317408,
      "uri": "Untitled.bin"
    }
  ],
  "images": [
    {
      "uri": "initialShadingGroup_baseColor.png"
    },
    {
      "uri": "initialShadingGroup_occlusionRoughnessMetallic.png"
    },
    {
      "uri": "initialShadingGroup_normal.png"
    }
  ],
  "materials": [
    {
      "alphaMode": "OPAQUE",
      "name": "initialShadingGroup",
      "normalTexture": {
        "index": 2
      },
      "occlusionTexture": {
        "index": 1
      },
      "pbrMetallicRoughness": {
        "baseColorTexture": {
          "index": 0
        },
        "metallicRoughnessTexture": {
          "index": 1
        }
      }
    }
  ],
  "meshes": [
    {
      "name": "GA__GA_",
      "primitives": [
        {
          "attributes": {
            "NORMAL": 2,
            "POSITION": 1,
            "TANGENT": 3,
            "TEXCOORD_0": 4
          },
          "indices": 0,
          "material": 0,
          "mode": 4
        }
      ]
    },
    {
      "name": "MM_MM",
      "primitives": [
        {
          "attributes": {
            "NORMAL": 7,
            "POSITION": 6,
            "TANGENT": 8,
            "TEXCOORD_0": 9
          },
          "indices": 5,
          "material": 0,
          "mode": 4
        }
      ]
    },
    {
      "name": "_GA_",
      "primitives": [
        {
          "attributes": {
            "NORMAL": 12,
            "POSITION": 11,
            "TANGENT": 13,
            "TEXCOORD_0": 14
          },
          "indices": 10,
          "material": 0,
          "mode": 4
        }
      ]
    },
    {
      "name": "MM",
      "primitives": [
        {
          "attributes": {
            "NORMAL": 17,
            "POSITION": 16,
            "TANGENT": 18,
            "TEXCOORD_0": 19
          },
          "indices": 15,
          "material": 0,
          "mode": 4
        }
      ]
    },
    {
      "name": "_62MM_BALL",
      "primitives": [
        {
          "attributes": {
            "NORMAL": 22,
            "POSITION": 21,
            "TANGENT": 23,
            "TEXCOORD_0": 24
          },
          "indices": 20,
          "material": 0,
          "mode": 4
        }
      ]
    },
    {
      "name": "_62MM_ARMOUR_PIERCING",
      "primitives": [
        {
          "attributes": {
            "NORMAL": 27,
            "POSITION": 26,
            "TANGENT": 28,
            "TEXCOORD_0": 29
          },
          "indices": 25,
          "material": 0,
          "mode": 4
        }
      ]
    },
    {
      "name": "_303_INCENDIARY_B_MK_4Z_SMOKE",
      "primitives": [
        {
          "attributes": {
            "NORMAL": 32,
            "POSITION": 31,
            "TANGENT": 33,
            "TEXCOORD_0": 34
          },
          "indices": 30,
          "material": 0,
          "mode": 4
        }
      ]
    },
    {
      "name": "_303_BALL_MK_VII",
      "primitives": [
        {
          "attributes": {
            "NORMAL": 37,
            "POSITION": 36,
            "TANGENT": 38,
            "TEXCOORD_0": 39
          },
          "indices": 35,
          "material": 0,
          "mode": 4
        }
      ]
    },
    {
      "name": "_50MM_SABOT_TUNGSTEN_PENETRATOR",
      "primitives": [
        {
          "attributes": {
            "NORMAL": 42,
            "POSITION": 41,
            "TANGENT": 43,
            "TEXCOORD_0": 44
          },
          "indices": 40,
          "material": 0,
          "mode": 4
        }
      ]
    },
    {
      "name": "_50MM_PRACTICE",
      "primitives": [
        {
          "attributes": {
            "NORMAL": 47,
            "POSITION": 46,
            "TANGENT": 48,
            "TEXCOORD_0": 49
          },
          "indices": 45,
          "material": 0,
          "mode": 4
        }
      ]
    },
    {
      "name": "_50MM_INCENDLARY",
      "primitives": [
        {
          "attributes": {
            "NORMAL": 52,
            "POSITION": 51,
            "TANGENT": 53,
            "TEXCOORD_0": 54
          },
          "indices": 50,
          "material": 0,
          "mode": 4
        }
      ]
    },
    {
      "name": "_410",
      "primitives": [
        {
          "attributes": {
            "NORMAL": 57,
            "POSITION": 56,
            "TANGENT": 58,
            "TEXCOORD_0": 59
          },
          "indices": 55,
          "material": 0,
          "mode": 4
        }
      ]
    },
    {
      "name": "MM_INCENDIARY_PRACTICE",
      "primitives": [
        {
          "attributes": {
            "NORMAL": 62,
            "POSITION": 61,
            "TANGENT": 63,
            "TEXCOORD_0": 64
          },
          "indices": 60,
          "material": 0,
          "mode": 4
        }
      ]
    },
    {
      "name": "MM_HIGH_EXPLOSIVE_MM_HIGH_EXPLOSIVE",
      "primitives": [
        {
          "attributes": {
            "NORMAL": 67,
            "POSITION": 66,
            "TANGENT": 68,
            "TEXCOORD_0": 69
          },
          "indices": 65,
          "material": 0,
          "mode": 4
        }
      ]
    },
    {
      "name": "MM_ARMOUR_PIERCING_SABOT_PRACTICE",
      "primitives": [
        {
          "attributes": {
            "NORMAL": 72,
            "POSITION": 71,
            "TANGENT": 73,
            "TEXCOORD_0": 74
          },
          "indices": 70,
          "material": 0,
          "mode": 4
        }
      ]
    },
    {
      "name": "MM_PRACTICE_1939_1945",
      "primitives": [
        {
          "attributes": {
            "NORMAL": 77,
            "POSITION": 76,
            "TANGENT": 78,
            "TEXCOORD_0": 79
          },
          "indices": 75,
          "material": 0,
          "mode": 4
        }
      ]
    },
    {
      "name": "MM_PRACTICE_MM_PRACTICE",
      "primitives": [
        {
          "attributes": {
            "NORMAL": 82,
            "POSITION": 81,
            "TANGENT": 83,
            "TEXCOORD_0": 84
          },
          "indices": 80,
          "material": 0,
          "mode": 4
        }
      ]
    },
    {
      "name": "MM_OERLLKON_SEMI_ARMOUR_PIERCING_INCENDLARY_1927",
      "primitives": [
        {
          "attributes": {
            "NORMAL": 87,
            "POSITION": 86,
            "TANGENT": 88,
            "TEXCOORD_0": 89
          },
          "indices": 85,
          "material": 0,
          "mode": 4
        }
      ]
    },
    {
      "name": "MM_OERLLKON_SEMI_ARMOUR_PIERCING_1927",
      "primitives": [
        {
          "attributes": {
            "NORMAL": 92,
            "POSITION": 91,
            "TANGENT": 93,
            "TEXCOORD_0": 94
          },
          "indices": 90,
          "material": 0,
          "mode": 4
        }
      ]
    },
    {
      "name": "MM_OERLLKON_PRACTICE_1927",
      "primitives": [
        {
          "attributes": {
            "NORMAL": 97,
            "POSITION": 96,
            "TANGENT": 98,
            "TEXCOORD_0": 99
          },
          "indices": 95,
          "material": 0,
          "mode": 4
        }
      ]
    },
    {
      "name": "MM_OERLLKON_HIGH_EXPLOSIVE_1927",
      "primitives": [
        {
          "attributes": {
            "NORMAL": 102,
            "POSITION": 101,
            "TANGENT": 103,
            "TEXCOORD_0": 104
          },
          "indices": 100,
          "material": 0,
          "mode": 4
        }
      ]
    },
    {
      "name": "MM_ARMOUR_PIERCING_FRANGIBLE",
      "primitives": [
        {
          "attributes": {
            "NORMAL": 107,
            "POSITION": 106,
            "TANGENT": 108,
            "TEXCOORD_0": 109
          },
          "indices": 105,
          "material": 0,
          "mode": 4
        }
      ]
    },
    {
      "name": "MM_ARMOUR_PIERCING_1939_1945",
      "primitives": [
        {
          "attributes": {
            "NORMAL": 112,
            "POSITION": 111,
            "TANGENT": 113,
            "TEXCOORD_0": 114
          },
          "indices": 110,
          "material": 0,
          "mode": 4
        }
      ]
    },
    {
      "name": "MM_ARMOUR_PIERCING",
      "primitives": [
        {
          "attributes": {
            "NORMAL": 117,
            "POSITION": 116,
            "TANGENT": 118,
            "TEXCOORD_0": 119
          },
          "indices": 115,
          "material": 0,
          "mode": 4
        }
      ]
    },
    {
      "name": "MM_AHIGH_EXPLOSIVE_1939_1945",
      "primitives": [
        {
          "attributes": {
            "NORMAL": 122,
            "POSITION": 121,
            "TANGENT": 123,
            "TEXCOORD_0": 124
          },
          "indices": 120,
          "material": 0,
          "mode": 4
        }
      ]
    },
    {
      "name": "_380_ACP",
      "primitives": [
        {
          "attributes": {
            "NORMAL": 127,
            "POSITION": 126,
            "TANGENT": 128,
            "TEXCOORD_0": 129
          },
          "indices": 125,
          "material": 0,
          "mode": 4
        }
      ]
    },
    {
      "name": "_357_MAG",
      "primitives": [
        {
          "attributes": {
            "NORMAL": 132,
            "POSITION": 131,
            "TANGENT": 133,
            "TEXCOORD_0": 134
          },
          "indices": 130,
          "material": 0,
          "mode": 4
        }
      ]
    },
    {
      "name": "_45_ACP",
      "primitives": [
        {
          "attributes": {
            "NORMAL": 137,
            "POSITION": 136,
            "TANGENT": 138,
            "TEXCOORD_0": 139
          },
          "indices": 135,
          "material": 0,
          "mode": 4
        }
      ]
    },
    {
      "name": "_40_S_W",
      "primitives": [
        {
          "attributes": {
            "NORMAL": 142,
            "POSITION": 141,
            "TANGENT": 143,
            "TEXCOORD_0": 144
          },
          "indices": 140,
          "material": 0,
          "mode": 4
        }
      ]
    },
    {
      "name": "_38_SPL",
      "primitives": [
        {
          "attributes": {
            "NORMAL": 147,
            "POSITION": 146,
            "TANGENT": 148,
            "TEXCOORD_0": 149
          },
          "indices": 145,
          "material": 0,
          "mode": 4
        }
      ]
    },
    {
      "name": "_32_AUTO",
      "primitives": [
        {
          "attributes": {
            "NORMAL": 152,
            "POSITION": 151,
            "TANGENT": 153,
            "TEXCOORD_0": 154
          },
          "indices": 150,
          "material": 0,
          "mode": 4
        }
      ]
    },
    {
      "name": "_22_LR",
      "primitives": [
        {
          "attributes": {
            "NORMAL": 157,
            "POSITION": 156,
            "TANGENT": 158,
            "TEXCOORD_0": 159
          },
          "indices": 155,
          "material": 0,
          "mode": 4
        }
      ]
    },
    {
      "name": "MM_M11845",
      "primitives": [
        {
          "attributes": {
            "NORMAL": 162,
            "POSITION": 161,
            "TANGENT": 163,
            "TEXCOORD_0": 164
          },
          "indices": 160,
          "material": 0,
          "mode": 4
        }
      ]
    },
    {
      "name": "MM_M918",
      "primitives": [
        {
          "attributes": {
            "NORMAL": 167,
            "POSITION": 166,
            "TANGENT": 168,
            "TEXCOORD_0": 169
          },
          "indices": 165,
          "material": 0,
          "mode": 4
        }
      ]
    },
    {
      "name": "MM_M433",
      "primitives": [
        {
          "attributes": {
            "NORMAL": 172,
            "POSITION": 171,
            "TANGENT": 173,
            "TEXCOORD_0": 174
          },
          "indices": 170,
          "material": 0,
          "mode": 4
        }
      ]
    },
    {
      "name": "MM_M406",
      "primitives": [
        {
          "attributes": {
            "NORMAL": 177,
            "POSITION": 176,
            "TANGENT": 178,
            "TEXCOORD_0": 179
          },
          "indices": 175,
          "material": 0,
          "mode": 4
        }
      ]
    },
    {
      "name": "MM_PRACTICE_V2_MM_PRACTICE",
      "primitives": [
        {
          "attributes": {
            "NORMAL": 182,
            "POSITION": 181,
            "TANGENT": 183,
            "TEXCOORD_0": 184
          },
          "indices": 180,
          "material": 0,
          "mode": 4
        }
      ]
    },
    {
      "name": "MM_PRACTICE",
      "primitives": [
        {
          "attributes": {
            "NORMAL": 187,
            "POSITION": 186,
            "TANGENT": 188,
            "TEXCOORD_0": 189
          },
          "indices": 185,
          "material": 0,
          "mode": 4
        }
      ]
    },
    {
      "name": "MM_HIGH_EXPLOSIVE_V3_MM_HIGH_EXPLOSIVE",
      "primitives": [
        {
          "attributes": {
            "NORMAL": 192,
            "POSITION": 191,
            "TANGENT": 193,
            "TEXCOORD_0": 194
          },
          "indices": 190,
          "material": 0,
          "mode": 4
        }
      ]
    },
    {
      "name": "mm_HIGH_EXPLOSIVE_V2",
      "primitives": [
        {
          "attributes": {
            "NORMAL": 197,
            "POSITION": 196,
            "TANGENT": 198,
            "TEXCOORD_0": 199
          },
          "indices": 195,
          "material": 0,
          "mode": 4
        }
      ]
    },
    {
      "name": "mm_HIGH_EXPLOSIVE_TRACER_V2",
      "primitives": [
        {
          "attributes": {
            "NORMAL": 202,
            "POSITION": 201,
            "TANGENT": 203,
            "TEXCOORD_0": 204
          },
          "indices": 200,
          "material": 0,
          "mode": 4
        }
      ]
    },
    {
      "name": "MM_HIGH_EXPLOSIVE_TRACER",
      "primitives": [
        {
          "attributes": {
            "NORMAL": 207,
            "POSITION": 206,
            "TANGENT": 208,
            "TEXCOORD_0": 209
          },
          "indices": 205,
          "material": 0,
          "mode": 4
        }
      ]
    },
    {
      "name": "mm_HIGH_EXPLOSIVE_INCENDIARY_1943_1945",
      "primitives": [
        {
          "attributes": {
            "NORMAL": 212,
            "POSITION": 211,
            "TANGENT": 213,
            "TEXCOORD_0": 214
          },
          "indices": 210,
          "material": 0,
          "mode": 4
        }
      ]
    },
    {
      "name": "MM_HIGH_EXPLOSIVE_INCENDIARY",
      "primitives": [
        {
          "attributes": {
            "NORMAL": 217,
            "POSITION": 216,
            "TANGENT": 218,
            "TEXCOORD_0": 219
          },
          "indices": 215,
          "material": 0,
          "mode": 4
        }
      ]
    },
    {
      "name": "MM_HIGH_EXPLOSIVE",
      "primitives": [
        {
          "attributes": {
            "NORMAL": 222,
            "POSITION": 221,
            "TANGENT": 223,
            "TEXCOORD_0": 224
          },
          "indices": 220,
          "material": 0,
          "mode": 4
        }
      ]
    },
    {
      "name": "MM_ARMOUR_PIERCING_TRACER",
      "primitives": [
        {
          "attributes": {
            "NORMAL": 227,
            "POSITION": 226,
            "TANGENT": 228,
            "TEXCOORD_0": 229
          },
          "indices": 225,
          "material": 0,
          "mode": 4
        }
      ]
    },
    {
      "name": "mm_ARMOUR_PIERCING_SABOT",
      "primitives": [
        {
          "attributes": {
            "NORMAL": 232,
            "POSITION": 231,
            "TANGENT": 233,
            "TEXCOORD_0": 234
          },
          "indices": 230,
          "material": 0,
          "mode": 4
        }
      ]
    },
    {
      "name": "MM_ARMOUR_PIERCING_HIGH_EXPLOSIVE",
      "primitives": [
        {
          "attributes": {
            "NORMAL": 237,
            "POSITION": 236,
            "TANGENT": 238,
            "TEXCOORD_0": 239
          },
          "indices": 235,
          "material": 0,
          "mode": 4
        }
      ]
    },
    {
      "name": "mm_ARMOUR_PIERCING_DU",
      "primitives": [
        {
          "attributes": {
            "NORMAL": 242,
            "POSITION": 241,
            "TANGENT": 243,
            "TEXCOORD_0": 244
          },
          "indices": 240,
          "material": 0,
          "mode": 4
        }
      ]
    },
    {
      "name": "MM_PRACTICE_MM_PRACTICE1",
      "primitives": [
        {
          "attributes": {
            "NORMAL": 247,
            "POSITION": 246,
            "TANGENT": 248,
            "TEXCOORD_0": 249
          },
          "indices": 245,
          "material": 0,
          "mode": 4
        }
      ]
    }
  ],
  "nodes": [
    {
      "children": [
        1,
        3,
        5,
        7,
        9,
        11,
        13,
        15,
        17,
        19,
        21,
        23,
        25,
        27,
        29,
        31,
        33,
        35,
        37,
        39,
        41,
        43,
        45,
        47,
        49,
        51,
        53,
        55,
        57,
        59,
        61,
        63,
        65,
        67,
        69,
        71,
        73,
        75,
        77,
        79,
        81,
        83,
        85,
        87,
        89,
        91,
        93,
        95,
        97,
        99
      ],
      "name": "Full%20Ammunition.obj",
      "scale": [
        0.00999999977648258,
        0.00999999977648258,
        0.00999999977648258
      ]
    },
    {
      "children": [
        2
      ],
      "name": "GA__GA_"
    },
    {
      "mesh": 0,
      "name": "GA__GA_"
    },
    {
      "children": [
        4
      ],
      "name": "MM_MM"
    },
    {
      "mesh": 1,
      "name": "MM_MM"
    },
    {
      "children": [
        6
      ],
      "name": "_GA_"
    },
    {
      "mesh": 2,
      "name": "_GA_"
    },
    {
      "children": [
        8
      ],
      "name": "MM"
    },
    {
      "mesh": 3,
      "name": "MM"
    },
    {
      "children": [
        10
      ],
      "name": "_62MM_BALL"
    },
    {
      "mesh": 4,
      "name": "_62MM_BALL"
    },
    {
      "children": [
        12
      ],
      "name": "_62MM_ARMOUR_PIERCING"
    },
    {
      "mesh": 5,
      "name": "_62MM_ARMOUR_PIERCING"
    },
    {
      "children": [
        14
      ],
      "name": "_303_INCENDIARY_B_MK_4Z_SMOKE"
    },
    {
      "mesh": 6,
      "name": "_303_INCENDIARY_B_MK_4Z_SMOKE"
    },
    {
      "children": [
        16
      ],
      "name": "_303_BALL_MK_VII"
    },
    {
      "mesh": 7,
      "name": "_303_BALL_MK_VII"
    },
    {
      "children": [
        18
      ],
      "name": "_50MM_SABOT_TUNGSTEN_PENETRATOR"
    },
    {
      "mesh": 8,
      "name": "_50MM_SABOT_TUNGSTEN_PENETRATOR"
    },
    {
      "children": [
        20
      ],
      "name": "_50MM_PRACTICE"
    },
    {
      "mesh": 9,
      "name": "_50MM_PRACTICE"
    },
    {
      "children": [
        22
      ],
      "name": "_50MM_INCENDLARY"
    },
    {
      "mesh": 10,
      "name": "_50MM_INCENDLARY"
    },
    {
      "children": [
        24
      ],
      "name": "_410"
    },
    {
      "mesh": 11,
      "name": "_410"
    },
    {
      "children": [
        26
      ],
      "name": "MM_INCENDIARY_PRACTICE"
    },
    {
      "mesh": 12,
      "name": "MM_INCENDIARY_PRACTICE"
    },
    {
      "children": [
        28
      ],
      "name": "MM_HIGH_EXPLOSIVE_MM_HIGH_EXPLOSIVE"
    },
    {
      "mesh": 13,
      "name": "MM_HIGH_EXPLOSIVE_MM_HIGH_EXPLOSIVE"
    },
    {
      "children": [
        30
      ],
      "name": "MM_ARMOUR_PIERCING_SABOT_PRACTICE"
    },
    {
      "mesh": 14,
      "name": "MM_ARMOUR_PIERCING_SABOT_PRACTICE"
    },
    {
      "children": [
        32
      ],
      "name": "MM_PRACTICE_1939_1945"
    },
    {
      "mesh": 15,
      "name": "MM_PRACTICE_1939_1945"
    },
    {
      "children": [
        34
      ],
      "name": "MM_PRACTICE_MM_PRACTICE"
    },
    {
      "mesh": 16,
      "name": "MM_PRACTICE_MM_PRACTICE"
    },
    {
      "children": [
        36
      ],
      "name": "MM_OERLLKON_SEMI_ARMOUR_PIERCING_INCENDLARY_1927"
    },
    {
      "mesh": 17,
      "name": "MM_OERLLKON_SEMI_ARMOUR_PIERCING_INCENDLARY_1927"
    },
    {
      "children": [
        38
      ],
      "name": "MM_OERLLKON_SEMI_ARMOUR_PIERCING_1927"
    },
    {
      "mesh": 18,
      "name": "MM_OERLLKON_SEMI_ARMOUR_PIERCING_1927"
    },
    {
      "children": [
        40
      ],
      "name": "MM_OERLLKON_PRACTICE_1927"
    },
    {
      "mesh": 19,
      "name": "MM_OERLLKON_PRACTICE_1927"
    },
    {
      "children": [
        42
      ],
      "name": "MM_OERLLKON_HIGH_EXPLOSIVE_1927"
    },
    {
      "mesh": 20,
      "name": "MM_OERLLKON_HIGH_EXPLOSIVE_1927"
    },
    {
      "children": [
        44
      ],
      "name": "MM_ARMOUR_PIERCING_FRANGIBLE"
    },
    {
      "mesh": 21,
      "name": "MM_ARMOUR_PIERCING_FRANGIBLE"
    },
    {
      "children": [
        46
      ],
      "name": "MM_ARMOUR_PIERCING_1939_1945"
    },
    {
      "mesh": 22,
      "name": "MM_ARMOUR_PIERCING_1939_1945"
    },
    {
      "children": [
        48
      ],
      "name": "MM_ARMOUR_PIERCING"
    },
    {
      "mesh": 23,
      "name": "MM_ARMOUR_PIERCING"
    },
    {
      "children": [
        50
      ],
      "name": "MM_AHIGH_EXPLOSIVE_1939_1945"
    },
    {
      "mesh": 24,
      "name": "MM_AHIGH_EXPLOSIVE_1939_1945"
    },
    {
      "children": [
        52
      ],
      "name": "_380_ACP"
    },
    {
      "mesh": 25,
      "name": "_380_ACP"
    },
    {
      "children": [
        54
      ],
      "name": "_357_MAG"
    },
    {
      "mesh": 26,
      "name": "_357_MAG"
    },
    {
      "children": [
        56
      ],
      "name": "_45_ACP"
    },
    {
      "mesh": 27,
      "name": "_45_ACP"
    },
    {
      "children": [
        58
      ],
      "name": "_40_S_W"
    },
    {
      "mesh": 28,
      "name": "_40_S_W"
    },
    {
      "children": [
        60
      ],
      "name": "_38_SPL"
    },
    {
      "mesh": 29,
      "name": "_38_SPL"
    },
    {
      "children": [
        62
      ],
      "name": "_32_AUTO"
    },
    {
      "mesh": 30,
      "name": "_32_AUTO"
    },
    {
      "children": [
        64
      ],
      "name": "_22_LR"
    },
    {
      "mesh": 31,
      "name": "_22_LR"
    },
    {
      "children": [
        66
      ],
      "name": "MM_M11845"
    },
    {
      "mesh": 32,
      "name": "MM_M11845"
    },
    {
      "children": [
        68
      ],
      "name": "MM_M918"
    },
    {
      "mesh": 33,
      "name": "MM_M918"
    },
    {
      "children": [
        70
      ],
      "name": "MM_M433"
    },
    {
      "mesh": 34,
      "name": "MM_M433"
    },
    {
      "children": [
        72
      ],
      "name": "MM_M406"
    },
    {
      "mesh": 35,
      "name": "MM_M406"
    },
    {
      "children": [
        74
      ],
      "name": "MM_PRACTICE_V2_MM_PRACTICE"
    },
    {
      "mesh": 36,
      "name": "MM_PRACTICE_V2_MM_PRACTICE"
    },
    {
      "children": [
        76
      ],
      "name": "MM_PRACTICE"
    },
    {
      "mesh": 37,
      "name": "MM_PRACTICE"
    },
    {
      "children": [
        78
      ],
      "name": "MM_HIGH_EXPLOSIVE_V3_MM_HIGH_EXPLOSIVE"
    },
    {
      "mesh": 38,
      "name": "MM_HIGH_EXPLOSIVE_V3_MM_HIGH_EXPLOSIVE"
    },
    {
      "children": [
        80
      ],
      "name": "mm_HIGH_EXPLOSIVE_V2"
    },
    {
      "mesh": 39,
      "name": "mm_HIGH_EXPLOSIVE_V2"
    },
    {
      "children": [
        82
      ],
      "name": "mm_HIGH_EXPLOSIVE_TRACER_V2"
    },
    {
      "mesh": 40,
      "name": "mm_HIGH_EXPLOSIVE_TRACER_V2"
    },
    {
      "children": [
        84
      ],
      "name": "MM_HIGH_EXPLOSIVE_TRACER"
    },
    {
      "mesh": 41,
      "name": "MM_HIGH_EXPLOSIVE_TRACER"
    },
    {
      "children": [
        86
      ],
      "name": "mm_HIGH_EXPLOSIVE_INCENDIARY_1943_1945"
    },
    {
      "mesh": 42,
      "name": "mm_HIGH_EXPLOSIVE_INCENDIARY_1943_1945"
    },
    {
      "children": [
        88
      ],
      "name": "MM_HIGH_EXPLOSIVE_INCENDIARY"
    },
    {
      "mesh": 43,
      "name": "MM_HIGH_EXPLOSIVE_INCENDIARY"
    },
    {
      "children": [
        90
      ],
      "name": "MM_HIGH_EXPLOSIVE"
    },
    {
      "mesh": 44,
      "name": "MM_HIGH_EXPLOSIVE"
    },
    {
      "children": [
        92
      ],
      "name": "MM_ARMOUR_PIERCING_TRACER"
    },
    {
      "mesh": 45,
      "name": "MM_ARMOUR_PIERCING_TRACER"
    },
    {
      "children": [
        94
      ],
      "name": "mm_ARMOUR_PIERCING_SABOT"
    },
    {
      "mesh": 46,
      "name": "mm_ARMOUR_PIERCING_SABOT"
    },
    {
      "children": [
        96
      ],
      "name": "MM_ARMOUR_PIERCING_HIGH_EXPLOSIVE"
    },
    {
      "mesh": 47,
      "name": "MM_ARMOUR_PIERCING_HIGH_EXPLOSIVE"
    },
    {
      "children": [
        98
      ],
      "name": "mm_ARMOUR_PIERCING_DU"
    },
    {
      "mesh": 48,
      "name": "mm_ARMOUR_PIERCING_DU"
    },
    {
      "children": [
        100
      ],
      "name": "MM_PRACTICE_MM_PRACTICE1"
    },
    {
      "mesh": 49,
      "name": "MM_PRACTICE_MM_PRACTICE1"
    }
  ],
  "samplers": [
    {
      "magFilter": 9729,
      "minFilter": 9985,
      "wrapS": 10497,
      "wrapT": 10497
    }
  ],
  "scene": 0,
  "scenes": [
    {
      "name": "Scene",
      "nodes": [
        0
      ]
    }
  ],
  "textures": [
    {
      "sampler": 0,
      "source": 0
    },
    {
      "sampler": 0,
      "source": 1
    },
    {
      "sampler": 0,
      "source": 2
    }
  ]
}