{
  "accessors": [
    {
      "bufferView": 2,
      "componentType": 5126,
      "count": 284,
      "max": [
        4.0,
        4.0,
        5.701099872589111
      ],
      "min": [
        -2.0,
        -4.0,
        0.20000000298023224
      ],
      "type": "VEC3"
    },
    {
      "bufferView": 2,
      "byteOffset": 3408,
      "componentType": 5126,
      "count": 284,
      "type": "VEC3"
    },
    {
      "bufferView": 1,
      "componentType": 5126,
      "count": 284,
      "type": "VEC2"
    },
    {
      "bufferView": 0,
      "componentType": 5125,
      "count": 1077,
      "type": "SCALAR"
    },
    {
      "bufferView": 2,
      "byteOffset": 6816,
      "componentType": 5126,
      "count": 26,
      "max": [
        4.0,
        4.0,
        0.20000000298023224
      ],
      "min": [
        -2.0,
        -4.0,
        0.0
      ],
      "type": "VEC3"
    },
    {
      "bufferView": 2,
      "byteOffset": 7128,
      "componentType": 5126,
      "count": 26,
      "type": "VEC3"
    },
    {
      "bufferView": 1,
      "byteOffset": 2272,
      "componentType": 5126,
      "count": 26,
      "type": "VEC2"
    },
    {
      "bufferView": 0,
      "byteOffset": 4308,
      "componentType": 5125,
      "count": 48,
      "type": "SCALAR"
    },
    {
      "bufferView": 2,
      "byteOffset": 7440,
      "componentType": 5126,
      "count": 122,
      "max": [
        4.079999923706055,
        4.139999866485596,
        5.851099967956543
      ],
      "min": [
        -2.140000104904175,
        -4.079999923706055,
        1.518118977546692
      ],
      "type": "VEC3"
    },
    {
      "bufferView": 2,
      "byteOffset": 8904,
      "componentType": 5126,
      "count": 122,
      "type": "VEC3"
    },
    {
      "bufferView": 1,
      "byteOffset": 2480,
      "componentType": 5126,
      "count": 122,
      "type": "VEC2"
    },
    {
      "bufferView": 0,
      "byteOffset": 4500,
      "componentType": 5125,
      "count": 204,
      "type": "SCALAR"
    },
    {
      "bufferView": 2,
      "byteOffset": 10368,
      "componentType": 5126,
      "count": 765,
      "max": [
        4.0,
        4.0,
        4.941100120544434
      ],
      "min": [
        -2.0,
        -4.0,
        -0.00890001654624939
      ],
      "type": "VEC3"
    },
    {
      "bufferView": 2,
      "byteOffset": 19548,
      "componentType": 5126,
      "count": 765,
      "type": "VEC3"
    },
    {
      "bufferView": 1,
      "byteOffset": 3456,
      "componentType": 5126,
      "count": 765,
      "type": "VEC2"
    },
    {
      "bufferView": 0,
      "byteOffset": 5316,
      "componentType": 5125,
      "count": 1389,
      "type": "SCALAR"
    },
    {
      "bufferView": 2,
      "byteOffset": 28728,
      "componentType": 5126,
      "count": 81,
      "max": [
        3.700000047683716,
        4.0,
        0.20000000298023224
      ],
      "min": [
        -2.5,
        -2.823050022125244,
        -0.00890001654624939
      ],
      "type": "VEC3"
    },
    {
      "bufferView": 2,
      "byteOffset": 29700,
      "componentType": 5126,
      "count": 81,
      "type": "VEC3"
    },
    {
      "bufferView": 1,
      "byteOffset": 9576,
      "componentType": 5126,
      "count": 81,
      "type": "VEC2"
    },
    {
      "bufferView": 0,
      "byteOffset": 10872,
      "componentType": 5125,
      "count": 132,
      "type": "SCALAR"
    },
    {
      "bufferView": 2,
      "byteOffset": 30672,
      "componentType": 5126,
      "count": 64,
      "max": [
        4.0,
        4.0,
        3.669999837875366
      ],
      "min": [
        -2.0,
        -4.0,
        0.6316915154457092
      ],
      "type": "VEC3"
    },
    {
      "bufferView": 2,
      "byteOffset": 31440,
      "componentType": 5126,
      "count": 64,
      "type": "VEC3"
    },
    {
      "bufferView": 1,
      "byteOffset": 10224,
      "componentType": 5126,
      "count": 64,
      "type": "VEC2"
    },
    {
      "bufferView": 0,
      "byteOffset": 11400,
      "componentType": 5125,
      "count": 96,
      "type": "SCALAR"
    },
    {
      "bufferView": 2,
      "byteOffset": 32208,
      "componentType": 5126,
      "count": 8,
      "max": [
        2.0,
        2.0950000286102295,
        1.721100091934204
      ],
      "min": [
        -2.0,
        -2.695000171661377,
        0.20110000669956207
      ],
      "type": "VEC3"
    },
    {
      "bufferView": 2,
      "byteOffset": 32304,
      "componentType": 5126,
      "count": 8,
      "type": "VEC3"
    },
    {
      "bufferView": 1,
      "byteOffset": 10736,
      "componentType": 5126,
      "count": 8,
      "type": "VEC2"
    },
    {
      "bufferView": 0,
      "byteOffset": 11784,
      "componentType": 5125,
      "count": 12,
      "type": "SCALAR"
    },
    {
      "bufferView": 2,
      "byteOffset": 32400,
      "componentType": 5126,
      "count": 26,
      "max": [
        -1.9962035417556763,
        -0.6193668842315674,
        0.552837073802948
      ],
      "min": [
        -2.6889395713806152,
        -1.6281898021697998,
        0.009217068552970886
      ],
      "type": "VEC3"
    },
    {
      "bufferView": 2,
      "byteOffset": 32712,
      "componentType": 5126,
      "count": 26,
      "type": "VEC3"
    },
    {
      "bufferView": 1,
      "byteOffset": 10800,
      "componentType": 5126,
      "count": 26,
      "type": "VEC2"
    },
    {
      "bufferView": 0,
      "byteOffset": 11832,
      "componentType": 5125,
      "count": 51,
      "type": "SCALAR"
    },
    {
      "bufferView": 2,
      "byteOffset": 33024,
      "componentType": 5126,
      "count": 8,
      "max": [
        -2.037147045135498,
        -0.6674349904060364,
        0.5276544094085693
      ],
      "min": [
        -2.647995948791504,
        -1.5801217555999756,
        0.15194624662399292
      ],
      "type": "VEC3"
    },
    {
      "bufferView": 2,
      "byteOffset": 33120,
      "componentType": 5126,
      "count": 8,
      "type": "VEC3"
    },
    {
      "bufferView": 1,
      "byteOffset": 11008,
      "componentType": 5126,
      "count": 8,
      "type": "VEC2"
    },
    {
      "bufferView": 0,
      "byteOffset": 12036,
      "componentType": 5125,
      "count": 12,
      "type": "SCALAR"
    }
  ],
  "asset": {
    "generator": "fab-model-conversion",
    "version": "2.0"
  },
  "bufferViews": [
    {
      "buffer": 0,
      "byteLength": 12084,
      "target": 34963
    },
    {
      "buffer": 0,
      "byteLength": 11072,
      "byteOffset": 12084,
      "byteStride": 8,
      "target": 34962
    },
    {
      "buffer": 0,
      "byteLength": 33216,
      "byteOffset": 23156,
      "byteStride": 12,
      "target": 34962
    }
  ],
  "buffers": [
    {
      "byteLength": 56372,
      "uri": "scene.bin"
    }
  ],
  "images": [
    {
      "uri": "textures/Wood_baseColor.jpeg"
    },
    {
      "uri": "textures/Slab_baseColor.jpeg"
    },
    {
      "uri": "textures/Roof_baseColor.jpeg"
    },
    {
      "uri": "textures/Concrete_baseColor.jpeg"
    },
    {
      "uri": "textures/OutDoor_Wood_baseColor.jpeg"
    },
    {
      "uri": "textures/Window_baseColor.jpeg"
    },
    {
      "uri": "textures/Door_baseColor.jpeg"
    },
    {
      "uri": "textures/BasementWood_baseColor.jpeg"
    },
    {
      "uri": "textures/BasementDoor_baseColor.jpeg"
    }
  ],
  "materials": [
    {
      "doubleSided": true,
      "name": "Wood",
      "pbrMetallicRoughness": {
        "baseColorTexture": {
          "index": 0
        },
        "metallicFactor": 0.0,
        "roughnessFactor": 0.8211145618000169
      }
    },
    {
      "doubleSided": true,
      "name": "Slab",
      "pbrMetallicRoughness": {
        "baseColorTexture": {
          "index": 1
        },
        "metallicFactor": 0.0,
        "roughnessFactor": 0.8211145618000169
      }
    },
    {
      "doubleSided": true,
      "name": "Roof",
      "pbrMetallicRoughness": {
        "baseColorTexture": {
          "index": 2
        },
        "metallicFactor": 0.0,
        "roughnessFactor": 0.8211145618000169
      }
    },
    {
      "doubleSided": true,
      "name": "Concrete",
      "pbrMetallicRoughness": {
        "baseColorTexture": {
          "index": 3
        },
        "metallicFactor": 0.0,
        "roughnessFactor": 0.8211145618000169
      }
    },
    {
      "doubleSided": true,
      "name": "OutDoor_Wood",
      "pbrMetallicRoughness": {
        "baseColorTexture": {
          "index": 4
        },
        "metallicFactor": 0.0,
        "roughnessFactor": 0.8211145618000169
      }
    },
    {
      "doubleSided": true,
      "name": "Window",
      "pbrMetallicRoughness": {
        "baseColorTexture": {
          "index": 5
        },
        "metallicFactor": 0.0,
        "roughnessFactor": 0.8211145618000169
      }
    },
    {
      "doubleSided": true,
      "name": "Door",
      "pbrMetallicRoughness": {
        "baseColorTexture": {
          "index": 6
        },
        "metallicFactor": 0.0,
        "roughnessFactor": 0.8211145618000169
      }
    },
    {
      "doubleSided": true,
      "name": "BasementWood",
      "pbrMetallicRoughness": {
        "baseColorTexture": {
          "index": 7
        },
        "metallicFactor": 0.0,
        "roughnessFactor": 0.8211145618000169
      }
    },
    {
      "doubleSided": true,
      "name": "BasementDoor",
      "pbrMetallicRoughness": {
        "baseColorTexture": {
          "index": 8
        },
        "metallicFactor": 0.0,
        "roughnessFactor": 0.8211145618000169
      }
    }
  ],
  "meshes": [
    {
      "name": "PSX Abandoned House_Wood_0",
      "primitives": [
        {
          "attributes": {
            "NORMAL": 1,
            "POSITION": 0,
            "TEXCOORD_0": 2
          },
          "indices": 3,
          "material": 0,
          "mode": 4
        }
      ]
    },
    {
      "name": "PSX Abandoned House_Slab_0",
      "primitives": [
        {
          "attributes": {
            "NORMAL": 5,
            "POSITION": 4,
            "TEXCOORD_0": 6
          },
          "indices": 7,
          "material": 1,
          "mode": 4
        }
      ]
    },
    {
      "name": "PSX Abandoned House_Roof_0",
      "primitives": [
        {
          "attributes": {
            "NORMAL": 9,
            "POSITION": 8,
            "TEXCOORD_0": 10
          },
          "indices": 11,
          "material": 2,
          "mode": 4
        }
      ]
    },
    {
      "name": "PSX Abandoned House_Concrete_0",
      "primitives": [
        {
          "attributes": {
            "NORMAL": 13,
            "POSITION": 12,
            "TEXCOORD_0": 14
          },
          "indices": 15,
          "material": 3,
          "mode": 4
        }
      ]
    },
    {
      "name": "PSX Abandoned House_OutDoor Wood_0",
      "primitives": [
        {
          "attributes": {
            "NORMAL": 17,
            "POSITION": 16,
            "TEXCOORD_0": 18
          },
          "indices": 19,
          "material": 4,
          "mode": 4
        }
      ]
    },
    {
      "name": "PSX Abandoned House_Window_0",
      "primitives": [
        {
          "attributes": {
            "NORMAL": 21,
            "POSITION": 20,
            "TEXCOORD_0": 22
          },
          "indices": 23,
          "material": 5,
          "mode": 4
        }
      ]
    },
    {
      "name": "PSX Abandoned House_Door_0",
      "primitives": [
        {
          "attributes": {
            "NORMAL": 25,
            "POSITION": 24,
            "TEXCOORD_0": 26
          },
          "indices": 27,
          "material": 6,
          "mode": 4
        }
      ]
    },
    {
      "name": "PSX Abandoned House_BasementWood_0",
      "primitives": [
        {
          "attributes": {
            "NORMAL": 29,
            "POSITION": 28,
            "TEXCOORD_0": 30
          },
          "indices": 31,
          "material": 7,
          "mode": 4
        }
      ]
    },
    {
      "name": "PSX Abandoned House_BasementDoor_0",
      "primitives": [
        {
          "attributes": {
            "NORMAL": 33,
            "POSITION": 32,
            "TEXCOORD_0": 34
          },
          "indices": 35,
          "material": 8,
          "mode": 4
        }
      ]
    }
  ],
  "nodes": [
    {
      "children": [
        1
      ],
      "matrix": [
        1.0,
        0.0,
        0.0,
        0.0,
        0.0,
        2.220446049250313e-16,
        -1.0,
        0.0,
        0.0,
        1.0,
        2.220446049250313e-16,
        0.0,
        0.0,
        0.0,
        0.0,
        1.0
      ],
      "name": "Sketchfab_model"
    },
    {
      "children": [
        2
      ],
      "matrix": [
        0.009999999776482582,
        0.0,
        0.0,
        0.0,
        0.0,
        0.0,
        0.009999999776482582,
        0.0,
        0.0,
        -0.009999999776482582,
        0.0,
        0.0,
        0.0,
        0.0,
        0.0,
        1.0
      ],
      "name": "PSX Abandoned House.fbx"
    },
    {
      "children": [
        3
      ],
      "name": "RootNode"
    },
    {
      "children": [
        4,
        5,
        6,
        7,
        8,
        9,
        10,
        11,
        12
      ],
      "matrix": [
        100.0,
        0.0,
        0.0,
        0.0,
        0.0,
        -1.629206793918314e-05,
        -99.99999999999868,
        0.0,
        0.0,
        99.99999999999868,
        -1.629206793918314e-05,
        0.0,
        0.0,
        0.0,
        0.0,
        1.0
      ],
      "name": "PSX Abandoned House"
    },
    {
      "mesh": 0,
      "name": "PSX Abandoned House_Wood_0"
    },
    {
      "mesh": 1,
      "name": "PSX Abandoned House_Slab_0"
    },
    {
      "mesh": 2,
      "name": "PSX Abandoned House_Roof_0"
    },
    {
      "mesh": 3,
      "name": "PSX Abandoned House_Concrete_0"
    },
    {
      "mesh": 4,
      "name": "PSX Abandoned House_OutDoor Wood_0"
    },
    {
      "mesh": 5,
      "name": "PSX Abandoned House_Window_0"
    },
    {
      "mesh": 6,
      "name": "PSX Abandoned House_Door_0"
    },
    {
      "mesh": 7,
      "name": "PSX Abandoned House_BasementWood_0"
    },
    {
      "mesh": 8,
      "name": "PSX Abandoned House_BasementDoor_0"
    }
  ],
  "samplers": [
    {
      "magFilter": 9729,
      "minFilter": 9987,
      "wrapS": 10497,
      "wrapT": 10497
    }
  ],
  "scene": 0,
  "scenes": [
    {
      "name": "Sketchfab_Scene",
      "nodes": [
        0
      ]
    }
  ],
  "textures": [
    {
      "sampler": 0,
      "source": 0
    },
    {
      "sampler": 0,
      "source": 1
    },
    {
      "sampler": 0,
      "source": 2
    },
    {
      "sampler": 0,
      "source": 3
    },
    {
      "sampler": 0,
      "source": 4
    },
    {
      "sampler": 0,
      "source": 5
    },
    {
      "sampler": 0,
      "source": 6
    },
    {
      "sampler": 0,
      "source": 7
    },
    {
      "sampler": 0,
      "source": 8
    }
  ]
}
