{
  "accessors": [
    {
      "bufferView": 2,
      "componentType": 5126,
      "count": 65532,
      "max": [
        -0.04326000064611435,
        0.015956999734044075,
        0.1650339961051941
      ],
      "min": [
        -0.1318420022726059,
        -0.015434999950230122,
        0.11018700152635574
      ],
      "type": "VEC3"
    },
    {
      "bufferView": 2,
      "byteOffset": 786384,
      "componentType": 5126,
      "count": 65532,
      "type": "VEC3"
    },
    {
      "bufferView": 1,
      "componentType": 5126,
      "count": 65532,
      "type": "VEC2"
    },
    {
      "bufferView": 0,
      "componentType": 5125,
      "count": 175698,
      "type": "SCALAR"
    },
    {
      "bufferView": 2,
      "byteOffset": 1572768,
      "componentType": 5126,
      "count": 65534,
      "max": [
        -0.04326000064611435,
        0.011966999620199203,
        0.16503800451755524
      ],
      "min": [
        -0.12249500304460526,
        -0.015798000618815422,
        0.10904300212860107
      ],
      "type": "VEC3"
    },
    {
      "bufferView": 2,
      "byteOffset": 2359176,
      "componentType": 5126,
      "count": 65534,
      "type": "VEC3"
    },
    {
      "bufferView": 1,
      "byteOffset": 524256,
      "componentType": 5126,
      "count": 65534,
      "type": "VEC2"
    },
    {
      "bufferView": 0,
      "byteOffset": 702792,
      "componentType": 5125,
      "count": 201807,
      "type": "SCALAR"
    },
    {
      "bufferView": 2,
      "byteOffset": 3145584,
      "componentType": 5126,
      "count": 65532,
      "max": [
        -0.028710000216960907,
        0.015798000618815422,
        0.16503800451755524
      ],
      "min": [
        -0.1318420022726059,
        -0.016116000711917877,
        0.10904300212860107
      ],
      "type": "VEC3"
    },
    {
      "bufferView": 2,
      "byteOffset": 3931968,
      "componentType": 5126,
      "count": 65532,
      "type": "VEC3"
    },
    {
      "bufferView": 1,
      "byteOffset": 1048528,
      "componentType": 5126,
      "count": 65532,
      "type": "VEC2"
    },
    {
      "bufferView": 0,
      "byteOffset": 1510020,
      "componentType": 5125,
      "count": 143040,
      "type": "SCALAR"
    },
    {
      "bufferView": 2,
      "byteOffset": 4718352,
      "componentType": 5126,
      "count": 53470,
      "max": [
        -0.04326000064611435,
        0.015798000618815422,
        0.16503800451755524
      ],
      "min": [
        -0.12159900367259979,
        0.0,
        0.10904300212860107
      ],
      "type": "VEC3"
    },
    {
      "bufferView": 2,
      "byteOffset": 5359992,
      "componentType": 5126,
      "count": 53470,
      "type": "VEC3"
    },
    {
      "bufferView": 1,
      "byteOffset": 1572784,
      "componentType": 5126,
      "count": 53470,
      "type": "VEC2"
    },
    {
      "bufferView": 0,
      "byteOffset": 2082180,
      "componentType": 5125,
      "count": 125253,
      "type": "SCALAR"
    },
    {
      "bufferView": 2,
      "byteOffset": 6001632,
      "componentType": 5126,
      "count": 7493,
      "max": [
        -0.1216999962925911,
        0.020483000203967094,
        0.15208299458026886
      ],
      "min": [
        -0.17320199310779572,
        -0.020570000633597374,
        0.11063600331544876
      ],
      "type": "VEC3"
    },
    {
      "bufferView": 2,
      "byteOffset": 6091548,
      "componentType": 5126,
      "count": 7493,
      "type": "VEC3"
    },
    {
      "bufferView": 1,
      "byteOffset": 2000544,
      "componentType": 5126,
      "count": 7493,
      "type": "VEC2"
    },
    {
      "bufferView": 0,
      "byteOffset": 2583192,
      "componentType": 5125,
      "count": 40464,
      "type": "SCALAR"
    },
    {
      "bufferView": 2,
      "byteOffset": 6181464,
      "componentType": 5126,
      "count": 65532,
      "max": [
        0.1014069989323616,
        0.015807000920176506,
        0.2197369933128357
      ],
      "min": [
        -0.17796200513839722,
        -0.020736999809741974,
        0.11843299865722656
      ],
      "type": "VEC3"
    },
    {
      "bufferView": 2,
      "byteOffset": 6967848,
      "componentType": 5126,
      "count": 65532,
      "type": "VEC3"
    },
    {
      "bufferView": 1,
      "byteOffset": 2060488,
      "componentType": 5126,
      "count": 65532,
      "type": "VEC2"
    },
    {
      "bufferView": 0,
      "byteOffset": 2745048,
      "componentType": 5125,
      "count": 167577,
      "type": "SCALAR"
    },
    {
      "bufferView": 2,
      "byteOffset": 7754232,
      "componentType": 5126,
      "count": 65532,
      "max": [
        0.1611279994249344,
        0.019731000065803528,
        0.19022700190544128
      ],
      "min": [
        -0.11348699778318405,
        -0.020736999809741974,
        0.025289999321103096
      ],
      "type": "VEC3"
    },
    {
      "bufferView": 2,
      "byteOffset": 8540616,
      "componentType": 5126,
      "count": 65532,
      "type": "VEC3"
    },
    {
      "bufferView": 1,
      "byteOffset": 2584744,
      "componentType": 5126,
      "count": 65532,
      "type": "VEC2"
    },
    {
      "bufferView": 0,
      "byteOffset": 3415356,
      "componentType": 5125,
      "count": 174150,
      "type": "SCALAR"
    },
    {
      "bufferView": 2,
      "byteOffset": 9327000,
      "componentType": 5126,
      "count": 65532,
      "max": [
        0.16325700283050537,
        0.019548000767827034,
        0.19117599725723267
      ],
      "min": [
        -0.11486300081014633,
        -0.014891000464558601,
        0.00989300012588501
      ],
      "type": "VEC3"
    },
    {
      "bufferView": 2,
      "byteOffset": 10113384,
      "componentType": 5126,
      "count": 65532,
      "type": "VEC3"
    },
    {
      "bufferView": 1,
      "byteOffset": 3109000,
      "componentType": 5126,
      "count": 65532,
      "type": "VEC2"
    },
    {
      "bufferView": 0,
      "byteOffset": 4111956,
      "componentType": 5125,
      "count": 165015,
      "type": "SCALAR"
    },
    {
      "bufferView": 2,
      "byteOffset": 10899768,
      "componentType": 5126,
      "count": 65534,
      "max": [
        0.16221599280834198,
        0.019365999847650528,
        0.19022700190544128
      ],
      "min": [
        -0.11486300081014633,
        -0.015633000060915947,
        0.00989300012588501
      ],
      "type": "VEC3"
    },
    {
      "bufferView": 2,
      "byteOffset": 11686176,
      "componentType": 5126,
      "count": 65534,
      "type": "VEC3"
    },
    {
      "bufferView": 1,
      "byteOffset": 3633256,
      "componentType": 5126,
      "count": 65534,
      "type": "VEC2"
    },
    {
      "bufferView": 0,
      "byteOffset": 4772016,
      "componentType": 5125,
      "count": 124104,
      "type": "SCALAR"
    },
    {
      "bufferView": 2,
      "byteOffset": 12472584,
      "componentType": 5126,
      "count": 65534,
      "max": [
        0.16333900392055511,
        0.01974800042808056,
        0.19022700190544128
      ],
      "min": [
        -0.11478500068187714,
        -0.021536000072956085,
        0.025346999987959862
      ],
      "type": "VEC3"
    },
    {
      "bufferView": 2,
      "byteOffset": 13258992,
      "componentType": 5126,
      "count": 65534,
      "type": "VEC3"
    },
    {
      "bufferView": 1,
      "byteOffset": 4157528,
      "componentType": 5126,
      "count": 65534,
      "type": "VEC2"
    },
    {
      "bufferView": 0,
      "byteOffset": 5268432,
      "componentType": 5125,
      "count": 117645,
      "type": "SCALAR"
    },
    {
      "bufferView": 2,
      "byteOffset": 14045400,
      "componentType": 5126,
      "count": 65532,
      "max": [
        0.16325700283050537,
        -0.0,
        0.19022700190544128
      ],
      "min": [
        -0.11478199809789658,
        -0.02283499948680401,
        0.009936000220477581
      ],
      "type": "VEC3"
    },
    {
      "bufferView": 2,
      "byteOffset": 14831784,
      "componentType": 5126,
      "count": 65532,
      "type": "VEC3"
    },
    {
      "bufferView": 1,
      "byteOffset": 4681800,
      "componentType": 5126,
      "count": 65532,
      "type": "VEC2"
    },
    {
      "bufferView": 0,
      "byteOffset": 5739012,
      "componentType": 5125,
      "count": 144930,
      "type": "SCALAR"
    },
    {
      "bufferView": 2,
      "byteOffset": 15618168,
      "componentType": 5126,
      "count": 65533,
      "max": [
        0.16001099348068237,
        -0.0,
        0.19117599725723267
      ],
      "min": [
        -0.11486300081014633,
        -0.02283499948680401,
        0.00989300012588501
      ],
      "type": "VEC3"
    },
    {
      "bufferView": 2,
      "byteOffset": 16404564,
      "componentType": 5126,
      "count": 65533,
      "type": "VEC3"
    },
    {
      "bufferView": 1,
      "byteOffset": 5206056,
      "componentType": 5126,
      "count": 65533,
      "type": "VEC2"
    },
    {
      "bufferView": 0,
      "byteOffset": 6318732,
      "componentType": 5125,
      "count": 130887,
      "type": "SCALAR"
    },
    {
      "bufferView": 2,
      "byteOffset": 17190960,
      "componentType": 5126,
      "count": 65532,
      "max": [
        0.14595499634742737,
        0.015752000734210014,
        0.2223619967699051
      ],
      "min": [
        -0.1779630035161972,
        -0.01935799978673458,
        0.009908000007271767
      ],
      "type": "VEC3"
    },
    {
      "bufferView": 2,
      "byteOffset": 17977344,
      "componentType": 5126,
      "count": 65532,
      "type": "VEC3"
    },
    {
      "bufferView": 1,
      "byteOffset": 5730320,
      "componentType": 5126,
      "count": 65532,
      "type": "VEC2"
    },
    {
      "bufferView": 0,
      "byteOffset": 6842280,
      "componentType": 5125,
      "count": 162639,
      "type": "SCALAR"
    },
    {
      "bufferView": 2,
      "byteOffset": 18763728,
      "componentType": 5126,
      "count": 65532,
      "max": [
        0.08614599704742432,
        0.010700000450015068,
        0.2223619967699051
      ],
      "min": [
        -0.11645500361919403,
        -0.015752000734210014,
        0.18707899749279022
      ],
      "type": "VEC3"
    },
    {
      "bufferView": 2,
      "byteOffset": 19550112,
      "componentType": 5126,
      "count": 65532,
      "type": "VEC3"
    },
    {
      "bufferView": 1,
      "byteOffset": 6254576,
      "componentType": 5126,
      "count": 65532,
      "type": "VEC2"
    },
    {
      "bufferView": 0,
      "byteOffset": 7492836,
      "componentType": 5125,
      "count": 174570,
      "type": "SCALAR"
    },
    {
      "bufferView": 2,
      "byteOffset": 20336496,
      "componentType": 5126,
      "count": 65532,
      "max": [
        0.13809899985790253,
        0.010607999749481678,
        0.23575599491596222
      ],
      "min": [
        -0.14718499779701233,
        -0.015716999769210815,
        0.18707899749279022
      ],
      "type": "VEC3"
    },
    {
      "bufferView": 2,
      "byteOffset": 21122880,
      "componentType": 5126,
      "count": 65532,
      "type": "VEC3"
    },
    {
      "bufferView": 1,
      "byteOffset": 6778832,
      "componentType": 5126,
      "count": 65532,
      "type": "VEC2"
    },
    {
      "bufferView": 0,
      "byteOffset": 8191116,
      "componentType": 5125,
      "count": 195297,
      "type": "SCALAR"
    },
    {
      "bufferView": 2,
      "byteOffset": 21909264,
      "componentType": 5126,
      "count": 65532,
      "max": [
        0.1378049999475479,
        0.01577400043606758,
        0.23575599491596222
      ],
      "min": [
        -0.17692600190639496,
        -0.01577400043606758,
        0.15955600142478943
      ],
      "type": "VEC3"
    },
    {
      "bufferView": 2,
      "byteOffset": 22695648,
      "componentType": 5126,
      "count": 65532,
      "type": "VEC3"
    },
    {
      "bufferView": 1,
      "byteOffset": 7303088,
      "componentType": 5126,
      "count": 65532,
      "type": "VEC2"
    },
    {
      "bufferView": 0,
      "byteOffset": 8972304,
      "componentType": 5125,
      "count": 187515,
      "type": "SCALAR"
    },
    {
      "bufferView": 2,
      "byteOffset": 23482032,
      "componentType": 5126,
      "count": 65534,
      "max": [
        0.1379700005054474,
        0.015752000734210014,
        0.22245599329471588
      ],
      "min": [
        -0.1779630035161972,
        -0.015752000734210014,
        0.15955600142478943
      ],
      "type": "VEC3"
    },
    {
      "bufferView": 2,
      "byteOffset": 24268440,
      "componentType": 5126,
      "count": 65534,
      "type": "VEC3"
    },
    {
      "bufferView": 1,
      "byteOffset": 7827344,
      "componentType": 5126,
      "count": 65534,
      "type": "VEC2"
    },
    {
      "bufferView": 0,
      "byteOffset": 9722364,
      "componentType": 5125,
      "count": 223839,
      "type": "SCALAR"
    },
    {
      "bufferView": 2,
      "byteOffset": 25054848,
      "componentType": 5126,
      "count": 65532,
      "max": [
        0.13283699750900269,
        0.015886999666690826,
        0.22835999727249146
      ],
      "min": [
        -0.1779630035161972,
        -0.01583700068295002,
        0.11843299865722656
      ],
      "type": "VEC3"
    },
    {
      "bufferView": 2,
      "byteOffset": 25841232,
      "componentType": 5126,
      "count": 65532,
      "type": "VEC3"
    },
    {
      "bufferView": 1,
      "byteOffset": 8351616,
      "componentType": 5126,
      "count": 65532,
      "type": "VEC2"
    },
    {
      "bufferView": 0,
      "byteOffset": 10617720,
      "componentType": 5125,
      "count": 131103,
      "type": "SCALAR"
    },
    {
      "bufferView": 2,
      "byteOffset": 26627616,
      "componentType": 5126,
      "count": 65534,
      "max": [
        0.13809899985790253,
        0.013652999885380268,
        0.22396400570869446
      ],
      "min": [
        -0.1779630035161972,
        -0.015752000734210014,
        0.16901400685310364
      ],
      "type": "VEC3"
    },
    {
      "bufferView": 2,
      "byteOffset": 27414024,
      "componentType": 5126,
      "count": 65534,
      "type": "VEC3"
    },
    {
      "bufferView": 1,
      "byteOffset": 8875872,
      "componentType": 5126,
      "count": 65534,
      "type": "VEC2"
    },
    {
      "bufferView": 0,
      "byteOffset": 11142132,
      "componentType": 5125,
      "count": 136188,
      "type": "SCALAR"
    },
    {
      "bufferView": 2,
      "byteOffset": 28200432,
      "componentType": 5126,
      "count": 65532,
      "max": [
        0.1378049999475479,
        0.015752000734210014,
        0.22244399785995483
      ],
      "min": [
        -0.1777919977903366,
        -0.01577400043606758,
        0.15955600142478943
      ],
      "type": "VEC3"
    },
    {
      "bufferView": 2,
      "byteOffset": 28986816,
      "componentType": 5126,
      "count": 65532,
      "type": "VEC3"
    },
    {
      "bufferView": 1,
      "byteOffset": 9400144,
      "componentType": 5126,
      "count": 65532,
      "type": "VEC2"
    },
    {
      "bufferView": 0,
      "byteOffset": 11686884,
      "componentType": 5125,
      "count": 135795,
      "type": "SCALAR"
    },
    {
      "bufferView": 2,
      "byteOffset": 29773200,
      "componentType": 5126,
      "count": 65532,
      "max": [
        0.1379700005054474,
        0.015752000734210014,
        0.22630399465560913
      ],
      "min": [
        -0.1779630035161972,
        0.0,
        0.1904039978981018
      ],
      "type": "VEC3"
    },
    {
      "bufferView": 2,
      "byteOffset": 30559584,
      "componentType": 5126,
      "count": 65532,
      "type": "VEC3"
    },
    {
      "bufferView": 1,
      "byteOffset": 9924400,
      "componentType": 5126,
      "count": 65532,
      "type": "VEC2"
    },
    {
      "bufferView": 0,
      "byteOffset": 12230064,
      "componentType": 5125,
      "count": 128214,
      "type": "SCALAR"
    },
    {
      "bufferView": 2,
      "byteOffset": 31345968,
      "componentType": 5126,
      "count": 65534,
      "max": [
        0.13809899985790253,
        0.01577400043606758,
        0.22466899454593658
      ],
      "min": [
        -0.1779630035161972,
        -0.0,
        0.15955600142478943
      ],
      "type": "VEC3"
    },
    {
      "bufferView": 2,
      "byteOffset": 32132376,
      "componentType": 5126,
      "count": 65534,
      "type": "VEC3"
    },
    {
      "bufferView": 1,
      "byteOffset": 10448656,
      "componentType": 5126,
      "count": 65534,
      "type": "VEC2"
    },
    {
      "bufferView": 0,
      "byteOffset": 12742920,
      "componentType": 5125,
      "count": 141993,
      "type": "SCALAR"
    },
    {
      "bufferView": 2,
      "byteOffset": 32918784,
      "componentType": 5126,
      "count": 65534,
      "max": [
        0.13809899985790253,
        0.01575700007379055,
        0.23575599491596222
      ],
      "min": [
        -0.17186899483203888,
        -0.0003349999897181988,
        0.16454599797725677
      ],
      "type": "VEC3"
    },
    {
      "bufferView": 2,
      "byteOffset": 33705192,
      "componentType": 5126,
      "count": 65534,
      "type": "VEC3"
    },
    {
      "bufferView": 1,
      "byteOffset": 10972928,
      "componentType": 5126,
      "count": 65534,
      "type": "VEC2"
    },
    {
      "bufferView": 0,
      "byteOffset": 13310892,
      "componentType": 5125,
      "count": 157893,
      "type": "SCALAR"
    },
    {
      "bufferView": 2,
      "byteOffset": 34491600,
      "componentType": 5126,
      "count": 65532,
      "max": [
        0.13809899985790253,
        0.015752000734210014,
        0.2223619967699051
      ],
      "min": [
        -0.14718499779701233,
        -0.0,
        0.18707899749279022
      ],
      "type": "VEC3"
    },
    {
      "bufferView": 2,
      "byteOffset": 35277984,
      "componentType": 5126,
      "count": 65532,
      "type": "VEC3"
    },
    {
      "bufferView": 1,
      "byteOffset": 11497200,
      "componentType": 5126,
      "count": 65532,
      "type": "VEC2"
    },
    {
      "bufferView": 0,
      "byteOffset": 13942464,
      "componentType": 5125,
      "count": 145980,
      "type": "SCALAR"
    },
    {
      "bufferView": 2,
      "byteOffset": 36064368,
      "componentType": 5126,
      "count": 65532,
      "max": [
        0.16333900392055511,
        0.014960000291466713,
        0.2283259928226471
      ],
      "min": [
        -0.14718499779701233,
        -0.020597999915480614,
        0.025346999987959862
      ],
      "type": "VEC3"
    },
    {
      "bufferView": 2,
      "byteOffset": 36850752,
      "componentType": 5126,
      "count": 65532,
      "type": "VEC3"
    },
    {
      "bufferView": 1,
      "byteOffset": 12021456,
      "componentType": 5126,
      "count": 65532,
      "type": "VEC2"
    },
    {
      "bufferView": 0,
      "byteOffset": 14526384,
      "componentType": 5125,
      "count": 110322,
      "type": "SCALAR"
    },
    {
      "bufferView": 2,
      "byteOffset": 37637136,
      "componentType": 5126,
      "count": 22426,
      "max": [
        0.16221599280834198,
        0.0,
        0.18888700008392334
      ],
      "min": [
        -0.11486300081014633,
        -0.019365999847650528,
        0.00989300012588501
      ],
      "type": "VEC3"
    },
    {
      "bufferView": 2,
      "byteOffset": 37906248,
      "componentType": 5126,
      "count": 22426,
      "type": "VEC3"
    },
    {
      "bufferView": 1,
      "byteOffset": 12545712,
      "componentType": 5126,
      "count": 22426,
      "type": "VEC2"
    },
    {
      "bufferView": 0,
      "byteOffset": 14967672,
      "componentType": 5125,
      "count": 36060,
      "type": "SCALAR"
    },
    {
      "bufferView": 2,
      "byteOffset": 38175360,
      "componentType": 5126,
      "count": 5489,
      "max": [
        0.0751969963312149,
        0.015633000060915947,
        0.18725599348545074
      ],
      "min": [
        -0.012583999894559383,
        -0.017010999843478203,
        0.16996300220489502
      ],
      "type": "VEC3"
    },
    {
      "bufferView": 2,
      "byteOffset": 38241228,
      "componentType": 5126,
      "count": 5489,
      "type": "VEC3"
    },
    {
      "bufferView": 1,
      "byteOffset": 12725120,
      "componentType": 5126,
      "count": 5489,
      "type": "VEC2"
    },
    {
      "bufferView": 0,
      "byteOffset": 15111912,
      "componentType": 5125,
      "count": 17460,
      "type": "SCALAR"
    },
    {
      "bufferView": 2,
      "byteOffset": 38307096,
      "componentType": 5126,
      "count": 65532,
      "max": [
        0.10531199723482132,
        0.014905000105500221,
        0.25734201073646545
      ],
      "min": [
        0.03731200098991394,
        -0.014905000105500221,
        0.2165360003709793
      ],
      "type": "VEC3"
    },
    {
      "bufferView": 2,
      "byteOffset": 39093480,
      "componentType": 5126,
      "count": 65532,
      "type": "VEC3"
    },
    {
      "bufferView": 1,
      "byteOffset": 12769032,
      "componentType": 5126,
      "count": 65532,
      "type": "VEC2"
    },
    {
      "bufferView": 0,
      "byteOffset": 15181752,
      "componentType": 5125,
      "count": 192318,
      "type": "SCALAR"
    },
    {
      "bufferView": 2,
      "byteOffset": 39879864,
      "componentType": 5126,
      "count": 49335,
      "max": [
        0.10535299777984619,
        0.014905000105500221,
        0.25734201073646545
      ],
      "min": [
        0.03731200098991394,
        -0.014905000105500221,
        0.2165360003709793
      ],
      "type": "VEC3"
    },
    {
      "bufferView": 2,
      "byteOffset": 40471884,
      "componentType": 5126,
      "count": 49335,
      "type": "VEC3"
    },
    {
      "bufferView": 1,
      "byteOffset": 13293288,
      "componentType": 5126,
      "count": 49335,
      "type": "VEC2"
    },
    {
      "bufferView": 0,
      "byteOffset": 15951024,
      "componentType": 5125,
      "count": 111279,
      "type": "SCALAR"
    },
    {
      "bufferView": 2,
      "byteOffset": 41063904,
      "componentType": 5126,
      "count": 1496,
      "max": [
        0.06263499706983566,
        0.012237000279128551,
        0.24267399311065674
      ],
      "min": [
        0.04858899861574173,
        -0.012198000214993954,
        0.2402610033750534
      ],
      "type": "VEC3"
    },
    {
      "bufferView": 2,
      "byteOffset": 41081856,
      "componentType": 5126,
      "count": 1496,
      "type": "VEC3"
    },
    {
      "bufferView": 1,
      "byteOffset": 13687968,
      "componentType": 5126,
      "count": 1496,
      "type": "VEC2"
    },
    {
      "bufferView": 0,
      "byteOffset": 16396140,
      "componentType": 5125,
      "count": 3816,
      "type": "SCALAR"
    }
  ],
  "asset": {
    "generator": "fab-model-conversion",
    "version": "2.0"
  },
  "bufferViews": [
    {
      "buffer": 0,
      "byteLength": 16411404,
      "target": 34963
    },
    {
      "buffer": 0,
      "byteLength": 13699936,
      "byteOffset": 16411404,
      "byteStride": 8,
      "target": 34962
    },
    {
      "buffer": 0,
      "byteLength": 41099808,
      "byteOffset": 30111340,
      "byteStride": 12,
      "target": 34962
    }
  ],
  "buffers": [
    {
      "byteLength": 71211148,
      "uri": "scene.bin"
    }
  ],
  "materials": [
    {
      "alphaMode": "BLEND",
      "doubleSided": true,
      "name": "LIGHT",
      "pbrMetallicRoughness": {
        "baseColorFactor": [
          0.800000012,
          0.800000012,
          0.800000012,
          1.0
        ],
        "metallicFactor": 0.0
      }
    },
    {
      "alphaMode": "BLEND",
      "doubleSided": true,
      "name": "PISTUL",
      "pbrMetallicRoughness": {
        "baseColorFactor": [
          0.800000012,
          0.800000012,
          0.800000012,
          1.0
        ],
        "metallicFactor": 0.0,
        "roughnessFactor": 0.801182032
      }
    },
    {
      "alphaMode": "BLEND",
      "doubleSided": true,
      "name": "REDDOT",
      "pbrMetallicRoughness": {
        "baseColorFactor": [
          0.800000012,
          0.800000012,
          0.800000012,
          1.0
        ],
        "metallicFactor": 0.0
      }
    }
  ],
  "meshes": [
    {
      "name": "Object_0",
      "primitives": [
        {
          "attributes": {
            "NORMAL": 1,
            "POSITION": 0,
            "TEXCOORD_0": 2
          },
          "indices": 3,
          "material": 0,
          "mode": 4
        }
      ]
    },
    {
      "name": "Object_1",
      "primitives": [
        {
          "attributes": {
            "NORMAL": 5,
            "POSITION": 4,
            "TEXCOORD_0": 6
          },
          "indices": 7,
          "material": 0,
          "mode": 4
        }
      ]
    },
    {
      "name": "Object_2",
      "primitives": [
        {
          "attributes": {
            "NORMAL": 9,
            "POSITION": 8,
            "TEXCOORD_0": 10
          },
          "indices": 11,
          "material": 0,
          "mode": 4
        }
      ]
    },
    {
      "name": "Object_3",
      "primitives": [
        {
          "attributes": {
            "NORMAL": 13,
            "POSITION": 12,
            "TEXCOORD_0": 14
          },
          "indices": 15,
          "material": 0,
          "mode": 4
        }
      ]
    },
    {
      "name": "Object_4",
      "primitives": [
        {
          "attributes": {
            "NORMAL": 17,
            "POSITION": 16,
            "TEXCOORD_0": 18
          },
          "indices": 19,
          "material": 0,
          "mode": 4
        }
      ]
    },
    {
      "name": "Object_5",
      "primitives": [
        {
          "attributes": {
            "NORMAL": 21,
            "POSITION": 20,
            "TEXCOORD_0": 22
          },
          "indices": 23,
          "material": 1,
          "mode": 4
        }
      ]
    },
    {
      "name": "Object_6",
      "primitives": [
        {
          "attributes": {
            "NORMAL": 25,
            "POSITION": 24,
            "TEXCOORD_0": 26
          },
          "indices": 27,
          "material": 1,
          "mode": 4
        }
      ]
    },
    {
      "name": "Object_7",
      "primitives": [
        {
          "attributes": {
            "NORMAL": 29,
            "POSITION": 28,
            "TEXCOORD_0": 30
          },
          "indices": 31,
          "material": 1,
          "mode": 4
        }
      ]
    },
    {
      "name": "Object_8",
      "primitives": [
        {
          "attributes": {
            "NORMAL": 33,
            "POSITION": 32,
            "TEXCOORD_0": 34
          },
          "indices": 35,
          "material": 1,
          "mode": 4
        }
      ]
    },
    {
      "name": "Object_9",
      "primitives": [
        {
          "attributes": {
            "NORMAL": 37,
            "POSITION": 36,
            "TEXCOORD_0": 38
          },
          "indices": 39,
          "material": 1,
          "mode": 4
        }
      ]
    },
    {
      "name": "Object_10",
      "primitives": [
        {
          "attributes": {
            "NORMAL": 41,
            "POSITION": 40,
            "TEXCOORD_0": 42
          },
          "indices": 43,
          "material": 1,
          "mode": 4
        }
      ]
    },
    {
      "name": "Object_11",
      "primitives": [
        {
          "attributes": {
            "NORMAL": 45,
            "POSITION": 44,
            "TEXCOORD_0": 46
          },
          "indices": 47,
          "material": 1,
          "mode": 4
        }
      ]
    },
    {
      "name": "Object_12",
      "primitives": [
        {
          "attributes": {
            "NORMAL": 49,
            "POSITION": 48,
            "TEXCOORD_0": 50
          },
          "indices": 51,
          "material": 1,
          "mode": 4
        }
      ]
    },
    {
      "name": "Object_13",
      "primitives": [
        {
          "attributes": {
            "NORMAL": 53,
            "POSITION": 52,
            "TEXCOORD_0": 54
          },
          "indices": 55,
          "material": 1,
          "mode": 4
        }
      ]
    },
    {
      "name": "Object_14",
      "primitives": [
        {
          "attributes": {
            "NORMAL": 57,
            "POSITION": 56,
            "TEXCOORD_0": 58
          },
          "indices": 59,
          "material": 1,
          "mode": 4
        }
      ]
    },
    {
      "name": "Object_15",
      "primitives": [
        {
          "attributes": {
            "NORMAL": 61,
            "POSITION": 60,
            "TEXCOORD_0": 62
          },
          "indices": 63,
          "material": 1,
          "mode": 4
        }
      ]
    },
    {
      "name": "Object_16",
      "primitives": [
        {
          "attributes": {
            "NORMAL": 65,
            "POSITION": 64,
            "TEXCOORD_0": 66
          },
          "indices": 67,
          "material": 1,
          "mode": 4
        }
      ]
    },
    {
      "name": "Object_17",
      "primitives": [
        {
          "attributes": {
            "NORMAL": 69,
            "POSITION": 68,
            "TEXCOORD_0": 70
          },
          "indices": 71,
          "material": 1,
          "mode": 4
        }
      ]
    },
    {
      "name": "Object_18",
      "primitives": [
        {
          "attributes": {
            "NORMAL": 73,
            "POSITION": 72,
            "TEXCOORD_0": 74
          },
          "indices": 75,
          "material": 1,
          "mode": 4
        }
      ]
    },
    {
      "name": "Object_19",
      "primitives": [
        {
          "attributes": {
            "NORMAL": 77,
            "POSITION": 76,
            "TEXCOORD_0": 78
          },
          "indices": 79,
          "material": 1,
          "mode": 4
        }
      ]
    },
    {
      "name": "Object_20",
      "primitives": [
        {
          "attributes": {
            "NORMAL": 81,
            "POSITION": 80,
            "TEXCOORD_0": 82
          },
          "indices": 83,
          "material": 1,
          "mode": 4
        }
      ]
    },
    {
      "name": "Object_21",
      "primitives": [
        {
          "attributes": {
            "NORMAL": 85,
            "POSITION": 84,
            "TEXCOORD_0": 86
          },
          "indices": 87,
          "material": 1,
          "mode": 4
        }
      ]
    },
    {
      "name": "Object_22",
      "primitives": [
        {
          "attributes": {
            "NORMAL": 89,
            "POSITION": 88,
            "TEXCOORD_0": 90
          },
          "indices": 91,
          "material": 1,
          "mode": 4
        }
      ]
    },
    {
      "name": "Object_23",
      "primitives": [
        {
          "attributes": {
            "NORMAL": 93,
            "POSITION": 92,
            "TEXCOORD_0": 94
          },
          "indices": 95,
          "material": 1,
          "mode": 4
        }
      ]
    },
    {
      "name": "Object_24",
      "primitives": [
        {
          "attributes": {
            "NORMAL": 97,
            "POSITION": 96,
            "TEXCOORD_0": 98
          },
          "indices": 99,
          "material": 1,
          "mode": 4
        }
      ]
    },
    {
      "name": "Object_25",
      "primitives": [
        {
          "attributes": {
            "NORMAL": 101,
            "POSITION": 100,
            "TEXCOORD_0": 102
          },
          "indices": 103,
          "material": 1,
          "mode": 4
        }
      ]
    },
    {
      "name": "Object_26",
      "primitives": [
        {
          "attributes": {
            "NORMAL": 105,
            "POSITION": 104,
            "TEXCOORD_0": 106
          },
          "indices": 107,
          "material": 1,
          "mode": 4
        }
      ]
    },
    {
      "name": "Object_27",
      "primitives": [
        {
          "attributes": {
            "NORMAL": 109,
            "POSITION": 108,
            "TEXCOORD_0": 110
          },
          "indices": 111,
          "material": 2,
          "mode": 4
        }
      ]
    },
    {
      "name": "Object_28",
      "primitives": [
        {
          "attributes": {
            "NORMAL": 113,
            "POSITION": 112,
            "TEXCOORD_0": 114
          },
          "indices": 115,
          "material": 2,
          "mode": 4
        }
      ]
    },
    {
      "name": "Object_29",
      "primitives": [
        {
          "attributes": {
            "NORMAL": 117,
            "POSITION": 116,
            "TEXCOORD_0": 118
          },
          "indices": 119,
          "material": 2,
          "mode": 4
        }
      ]
    }
  ],
  "nodes": [
    {
      "children": [
        1
      ],
      "matrix": [
        1.0,
        0.0,
        0.0,
        0.0,
        0.0,
        2.220446049250313e-16,
        -1.0,
        0.0,
        0.0,
        1.0,
        2.220446049250313e-16,
        0.0,
        0.0,
        0.0,
        0.0,
        1.0
      ],
      "name": "FAB converted model"
    },
    {
      "children": [
        2,
        3,
        4,
        5,
        6,
        7,
        8,
        9,
        10,
        11,
        12,
        13,
        14,
        15,
        16,
        17,
        18,
        19,
        20,
        21,
        22,
        23,
        24,
        25,
        26,
        27,
        28,
        29,
        30,
        31
      ],
      "name": "Pistol_001.obj.cleaner.materialmerger.gles"
    },
    {
      "mesh": 0,
      "name": "Object_2"
    },
    {
      "mesh": 1,
      "name": "Object_3"
    },
    {
      "mesh": 2,
      "name": "Object_4"
    },
    {
      "mesh": 3,
      "name": "Object_5"
    },
    {
      "mesh": 4,
      "name": "Object_6"
    },
    {
      "mesh": 5,
      "name": "Object_7"
    },
    {
      "mesh": 6,
      "name": "Object_8"
    },
    {
      "mesh": 7,
      "name": "Object_9"
    },
    {
      "mesh": 8,
      "name": "Object_10"
    },
    {
      "mesh": 9,
      "name": "Object_11"
    },
    {
      "mesh": 10,
      "name": "Object_12"
    },
    {
      "mesh": 11,
      "name": "Object_13"
    },
    {
      "mesh": 12,
      "name": "Object_14"
    },
    {
      "mesh": 13,
      "name": "Object_15"
    },
    {
      "mesh": 14,
      "name": "Object_16"
    },
    {
      "mesh": 15,
      "name": "Object_17"
    },
    {
      "mesh": 16,
      "name": "Object_18"
    },
    {
      "mesh": 17,
      "name": "Object_19"
    },
    {
      "mesh": 18,
      "name": "Object_20"
    },
    {
      "mesh": 19,
      "name": "Object_21"
    },
    {
      "mesh": 20,
      "name": "Object_22"
    },
    {
      "mesh": 21,
      "name": "Object_23"
    },
    {
      "mesh": 22,
      "name": "Object_24"
    },
    {
      "mesh": 23,
      "name": "Object_25"
    },
    {
      "mesh": 24,
      "name": "Object_26"
    },
    {
      "mesh": 25,
      "name": "Object_27"
    },
    {
      "mesh": 26,
      "name": "Object_28"
    },
    {
      "mesh": 27,
      "name": "Object_29"
    },
    {
      "mesh": 28,
      "name": "Object_30"
    },
    {
      "mesh": 29,
      "name": "Object_31"
    }
  ],
  "scene": 0,
  "scenes": [
    {
      "name": "FAB converted",
      "nodes": [
        0
      ]
    }
  ]
}
